<?xml version="1.0" encoding="utf-8"?>
<!-- Generator: Adobe Illustrator 22.0.1, SVG Export Plug-In . SVG Version: 6.00 Build 0)  -->
<svg version="1.1" id="Layer_1" xmlns="http://www.w3.org/2000/svg" xmlns:xlink="http://www.w3.org/1999/xlink" x="0px" y="0px"
	 viewBox="0 0 554.2 333.4" style="enable-background:new 0 0 554.2 333.4;" xml:space="preserve">
<style type="text/css">
	.st0{fill:#D5D3EF;}
	.st1{fill:#E2A864;}
</style>
<g>
	<g>
		<path class="st0" d="M-0.2,0.8H11v52.7H-0.2V0.8z"/>
		<path class="st0" d="M22.7,44V24.1h-6.3v-8.8h6.3V4.9h10.1v10.4h7.7v8.8h-7.7v17.2c0,2.4,1.3,4.2,3.5,4.2c1.5,0,2.9-0.6,3.5-1.1
			l2.1,7.6c-1.5,1.3-4.2,2.4-8.4,2.4C26.5,54.4,22.7,50.8,22.7,44z"/>
		<path class="st0" d="M43.2,19.2c2.5-1.3,5.4-4.7,6.1-7.5C49,11.8,48.3,12,47.8,12c-3,0-5.4-2.4-5.4-5.7c0-3.5,2.8-6.3,6.2-6.3
			c3.7,0,7.1,2.9,7.1,8.1c0,5.9-3.3,11.2-8.1,14.7L43.2,19.2z"/>
		<path class="st0" d="M57.2,41.5c2.8,2.6,8.4,5.2,13.2,5.2c4.3,0,6.4-1.5,6.4-3.9c0-2.7-3.3-3.6-7.7-4.5c-6.6-1.3-15-2.8-15-11.9
			c0-6.4,5.6-12,15.6-12c6.5,0,11.6,2.2,15.3,5.2l-3.9,6.9C78.8,24,74.5,22,69.8,22c-3.6,0-6,1.3-6,3.6c0,2.4,3,3.2,7.3,4.1
			c6.6,1.3,15.3,3,15.3,12.5c0,7-5.9,12.2-16.5,12.2c-6.6,0-13-2.2-17.1-5.9L57.2,41.5z"/>
	</g>
	<g>
		<path class="st1" d="M96.3,108.1V75H85.8V60.5h10.5V43.1h16.8v17.3H126V75h-12.9v28.6c0,3.9,2.1,7,5.8,7c2.5,0,4.9-0.9,5.8-1.8
			l3.5,12.6c-2.5,2.2-7,4.1-13.9,4.1C102.6,125.5,96.3,119.4,96.3,108.1z"/>
		<path class="st1" d="M131.4,41.1c0-5.5,4.6-10,10-10c5.5,0,10,4.5,10,10s-4.5,10-10,10C136,51.1,131.4,46.7,131.4,41.1z
			 M133.1,60.5h16.7v63.4h-16.7V60.5z"/>
		<path class="st1" d="M237,83.8c0-5.9-2.6-10.1-9.5-10.1c-5.9,0-10.8,3.9-13.1,7.4v42.8h-16.8V83.8c0-5.9-2.6-10.1-9.5-10.1
			c-5.8,0-10.6,3.9-13.1,7.5v42.7h-16.7V60.5H175v8.3c2.6-3.8,11-9.9,20.8-9.9c9.3,0,15.2,4.3,17.6,11.6
			c3.7-5.8,12.1-11.6,21.8-11.6c11.7,0,18.7,6.2,18.7,19.2v45.8H237V83.8z"/>
		<path class="st1" d="M291,58.9c18.9,0,31.8,14.2,31.8,34.9v3.7h-47.2c1.1,8,7.5,14.7,18.3,14.7c5.9,0,12.9-2.4,16.9-6.3l7.4,10.8
			c-6.4,5.9-16.3,8.8-26.1,8.8c-19.3,0-33.9-13-33.9-33.4C258.1,73.7,271.6,58.9,291,58.9z M275.3,86.2h31.3
			c-0.4-6-4.6-14.1-15.6-14.1C280.6,72.1,276.1,79.9,275.3,86.2z"/>
	</g>
	<g>
		<path class="st0" d="M49.5,172.9V153h-6.3v-8.8h6.3v-10.4h10.1v10.4h7.7v8.8h-7.7v17.2c0,2.4,1.3,4.2,3.5,4.2
			c1.5,0,2.9-0.6,3.5-1.1l2.1,7.6c-1.5,1.3-4.2,2.4-8.4,2.4C53.2,183.3,49.5,179.6,49.5,172.9z"/>
		<path class="st0" d="M68.6,163.2c0-10.8,7.6-20,20.1-20c12.6,0,20.2,9.2,20.2,20c0,10.9-7.6,20.1-20.2,20.1
			C76.1,183.3,68.6,174.1,68.6,163.2z M98.5,163.2c0-5.9-3.6-11.1-9.8-11.1s-9.7,5.1-9.7,11.1c0,6,3.5,11.1,9.7,11.1
			S98.5,169.2,98.5,163.2z"/>
		<path class="st0" d="M180.7,158.2c0-3.6-1.6-6.1-5.7-6.1c-3.6,0-6.5,2.4-7.9,4.4v25.7H157v-24.1c0-3.6-1.6-6.1-5.7-6.1
			c-3.5,0-6.4,2.4-7.9,4.5v25.7h-10v-38.1h10v5c1.6-2.3,6.6-5.9,12.5-5.9c5.6,0,9.2,2.6,10.6,6.9c2.2-3.5,7.3-6.9,13.1-6.9
			c7,0,11.2,3.7,11.2,11.5v27.6h-10.1V158.2z"/>
		<path class="st0" d="M220.6,178.4c-2.6,3.1-7.1,4.9-12.1,4.9c-6.1,0-13.3-4.1-13.3-12.6c0-8.9,7.2-12.2,13.3-12.2
			c5.1,0,9.6,1.6,12.1,4.7v-5.3c0-3.9-3.3-6.4-8.4-6.4c-4.1,0-7.9,1.5-11.1,4.5l-3.8-6.7c4.7-4.1,10.7-6,16.7-6
			c8.7,0,16.7,3.5,16.7,14.5v24.6h-10V178.4z M220.6,168.4c-1.7-2.2-4.8-3.3-8.1-3.3c-3.9,0-7.2,2.1-7.2,5.8c0,3.6,3.2,5.6,7.2,5.6
			c3.2,0,6.4-1.1,8.1-3.3V168.4z"/>
		<path class="st0" d="M251.8,167.6l-4.6,4.9v9.8h-10v-52.7h10v31.5l14.5-17H274l-15.1,17.3l15.6,20.8h-12.6L251.8,167.6z"/>
		<path class="st0" d="M292,143.2c11.4,0,19.1,8.5,19.1,21v2.2h-28.3c0.6,4.8,4.5,8.8,11,8.8c3.6,0,7.7-1.4,10.2-3.8l4.4,6.5
			c-3.9,3.6-9.8,5.3-15.7,5.3c-11.6,0-20.4-7.8-20.4-20.1C272.2,152.2,280.4,143.2,292,143.2z M282.6,159.7h18.8
			c-0.2-3.6-2.8-8.4-9.4-8.4C285.7,151.2,283.1,155.9,282.6,159.7z"/>
	</g>
	<g>
		<path class="st1" d="M220.6,294.6l-35-53.7h22.1l22.6,36.5l22.4-36.5h22.1L240,294.6v37.2h-19.4V294.6z"/>
		<path class="st1" d="M254.7,298.8c0-18.7,13.1-34.5,34.8-34.5c21.8,0,34.9,15.8,34.9,34.5c0,18.8-13.1,34.6-34.9,34.6
			C267.8,333.4,254.7,317.6,254.7,298.8z M306.4,298.8c0-10.2-6.1-19.1-16.9-19.1c-10.8,0-16.8,8.9-16.8,19.1
			c0,10.4,6,19.2,16.8,19.2C300.2,318,306.4,309.2,306.4,298.8z"/>
		<path class="st1" d="M376.3,323.5c-4.5,5-12.4,10-23.2,10c-14.5,0-21.3-7.9-21.3-20.7v-46.8h17.3v40c0,9.1,4.8,12.1,12.1,12.1
			c6.7,0,12-3.7,15-7.5v-44.6h17.3v65.9h-17.3V323.5z"/>
		<path class="st1" d="M402.4,265.9h17.3v9c4.6-5.9,12.8-10.5,21-10.5v16.9c-1.2-0.3-2.9-0.4-4.8-0.4c-5.7,0-13.4,3.1-16.2,7.4v43.5
			h-17.3V265.9z"/>
		<path class="st1" d="M449,311.1c4.8,4.5,14.6,9,22.8,9c7.5,0,11-2.6,11-6.7c0-4.6-5.7-6.3-13.2-7.8c-11.3-2.2-25.9-4.9-25.9-20.6
			c0-11,9.7-20.7,27-20.7c11.2,0,20,3.8,26.5,9l-6.8,11.9c-4-4.2-11.5-7.6-19.5-7.6c-6.3,0-10.4,2.3-10.4,6.1
			c0,4.1,5.2,5.6,12.5,7.1c11.3,2.2,26.5,5.2,26.5,21.5c0,12.1-10.2,21.1-28.5,21.1c-11.5,0-22.5-3.8-29.5-10.2L449,311.1z"/>
		<path class="st1" d="M516.5,311.2c6,0,10.9,5,10.9,11c0,5.9-4.9,10.9-10.9,10.9s-10.9-5-10.9-10.9
			C505.6,316.3,510.5,311.2,516.5,311.2z M505.9,240.9h21l-2.7,61.4h-15.3L505.9,240.9z"/>
	</g>
	<g>
		<g>
			<path class="st0" d="M137.9,192.8c11.4,0,19.1,8.5,19.1,21v2.2h-28.3c0.6,4.8,4.5,8.8,11,8.8c3.6,0,7.7-1.4,10.2-3.8l4.4,6.5
				c-3.9,3.6-9.8,5.3-15.7,5.3c-11.6,0-20.4-7.8-20.4-20.1C118.2,201.7,126.3,192.8,137.9,192.8z M128.5,209.2h18.8
				c-0.2-3.6-2.8-8.4-9.4-8.4C131.7,200.8,129,205.4,128.5,209.2z"/>
			<path class="st0" d="M184.3,227.9c-2.6,3.1-7.1,4.9-12.1,4.9c-6.1,0-13.3-4.1-13.3-12.6c0-8.9,7.2-12.2,13.3-12.2
				c5.1,0,9.6,1.6,12.1,4.7v-5.3c0-3.9-3.3-6.4-8.4-6.4c-4.1,0-7.9,1.5-11.1,4.5l-3.8-6.7c4.7-4.1,10.7-6,16.7-6
				c8.7,0,16.7,3.5,16.7,14.5v24.6h-10V227.9z M184.3,218c-1.7-2.2-4.8-3.3-8.1-3.3c-3.9,0-7.2,2.1-7.2,5.8c0,3.6,3.2,5.6,7.2,5.6
				c3.2,0,6.4-1.1,8.1-3.3V218z"/>
			<path class="st0" d="M199.1,193.7h10v5.2c2.7-3.4,7.4-6.1,12.2-6.1v9.8c-0.7-0.2-1.7-0.2-2.8-0.2c-3.3,0-7.7,1.8-9.4,4.3v25.2
				h-10V193.7z"/>
			<path class="st0" d="M251.6,208.8c0-5.3-2.8-7.1-7-7.1c-3.9,0-7,2.2-8.7,4.5v25.7h-10v-38.1h10v5c2.4-2.9,7.1-5.9,13.3-5.9
				c8.4,0,12.4,4.7,12.4,12.2v26.9h-10V208.8z"/>
			<path class="st0" d="M285.8,192.8c11.4,0,19.1,8.5,19.1,21v2.2h-28.3c0.6,4.8,4.5,8.8,11,8.8c3.6,0,7.7-1.4,10.2-3.8l4.4,6.5
				c-3.9,3.6-9.8,5.3-15.7,5.3c-11.6,0-20.4-7.8-20.4-20.1C266,201.7,274.2,192.8,285.8,192.8z M276.4,209.2h18.8
				c-0.2-3.6-2.8-8.4-9.4-8.4C279.5,200.8,276.8,205.4,276.4,209.2z"/>
			<path class="st0" d="M335.6,227c-3,3.7-7.2,5.8-11.8,5.8c-9.6,0-16.9-7.3-16.9-20c0-12.5,7.2-20.1,16.9-20.1
				c4.5,0,8.8,2,11.8,5.8v-19.4h10.1v52.7h-10.1V227z M335.6,206c-1.7-2.5-5.3-4.3-8.7-4.3c-5.7,0-9.6,4.5-9.6,11.1
				c0,6.6,3.9,11.1,9.6,11.1c3.4,0,6.9-1.8,8.7-4.3V206z"/>
			<path class="st0" d="M375,202.5h-6.3v-8.8h6.3v-2.1c0-8.3,5.4-13.3,12.9-13.3c2.8,0,5.4,0.6,7.3,1.6l-2.1,7.1
				c-0.9-0.6-2.1-0.8-3.2-0.8c-2.8,0-4.7,1.9-4.7,5.5v1.9h7.7v8.8h-7.7v29.4H375V202.5z"/>
			<path class="st0" d="M422.6,227c-2.6,2.9-7.2,5.8-13.4,5.8c-8.4,0-12.3-4.6-12.3-12v-27.1h10v23.1c0,5.3,2.8,7,7,7
				c3.9,0,6.9-2.1,8.7-4.3v-25.8h10v38.1h-10V227z"/>
			<path class="st0" d="M463.5,208.8c0-5.3-2.8-7.1-7-7.1c-3.9,0-7,2.2-8.7,4.5v25.7h-10v-38.1h10v5c2.4-2.9,7.1-5.9,13.3-5.9
				c8.4,0,12.4,4.7,12.4,12.2v26.9h-10V208.8z"/>
			<path class="st0" d="M506.7,227c-3,3.7-7.2,5.8-11.8,5.8c-9.6,0-16.9-7.3-16.9-20c0-12.5,7.2-20.1,16.9-20.1
				c4.5,0,8.8,2,11.8,5.8v-19.4h10.1v52.7h-10.1V227z M506.7,206c-1.7-2.5-5.3-4.3-8.7-4.3c-5.7,0-9.6,4.5-9.6,11.1
				c0,6.6,3.9,11.1,9.6,11.1c3.4,0,6.9-1.8,8.7-4.3V206z"/>
			<path class="st0" d="M525,219.9c2.8,2.6,8.4,5.2,13.2,5.2c4.3,0,6.4-1.5,6.4-3.9c0-2.7-3.3-3.6-7.7-4.5c-6.6-1.3-15-2.8-15-11.9
				c0-6.4,5.6-12,15.6-12c6.5,0,11.6,2.2,15.3,5.2l-3.9,6.9c-2.3-2.4-6.6-4.4-11.3-4.4c-3.6,0-6,1.3-6,3.6c0,2.4,3,3.2,7.3,4.1
				c6.6,1.3,15.3,3,15.3,12.5c0,7-5.9,12.2-16.5,12.2c-6.6,0-13-2.2-17.1-5.9L525,219.9z"/>
		</g>
	</g>
</g>
</svg>
