<?xml version="1.0" encoding="utf-8"?>
<!-- Generator: Adobe Illustrator 22.0.1, SVG Export Plug-In . SVG Version: 6.00 Build 0)  -->
<svg version="1.1" id="Layer_1" xmlns="http://www.w3.org/2000/svg" xmlns:xlink="http://www.w3.org/1999/xlink" x="0px" y="0px"
	 viewBox="0 0 518.3 241.5" style="enable-background:new 0 0 518.3 241.5;" xml:space="preserve">
<style type="text/css">
	.st0{fill:#D5D3EF;}
	.st1{fill:#E2A864;}
</style>
<g>
	<g>
		<path class="st0" d="M133.1,37.5c3.7,3.9,9.5,7.1,16.7,7.1c6.2,0,9.2-2.9,9.2-5.9c0-3.9-4.6-5.3-10.7-6.7
			c-8.6-2-19.7-4.3-19.7-16.1c0-8.8,7.6-15.9,20-15.9c8.4,0,15.3,2.5,20.5,7.3l-6.2,8.2c-4.3-3.9-9.9-5.8-15.1-5.8
			c-5.1,0-7.7,2.2-7.7,5.4c0,3.6,4.4,4.7,10.5,6.1c8.7,2,19.7,4.6,19.7,16.3c0,9.6-6.9,16.9-21.1,16.9c-10.1,0-17.4-3.4-22.3-8.4
			L133.1,37.5z"/>
		<path class="st0" d="M178.1,44V24.1h-6.3v-8.8h6.3V4.9h10.1v10.4h7.7v8.8h-7.7v17.2c0,2.4,1.3,4.2,3.5,4.2c1.5,0,2.9-0.6,3.5-1.1
			l2.1,7.6c-1.5,1.3-4.2,2.4-8.4,2.4C181.9,54.4,178.1,50.8,178.1,44z"/>
		<path class="st0" d="M224.6,49.5c-2.6,3.1-7.1,4.9-12.1,4.9c-6.1,0-13.3-4.1-13.3-12.6c0-8.9,7.2-12.2,13.3-12.2
			c5.1,0,9.6,1.6,12.1,4.7V29c0-3.9-3.3-6.4-8.4-6.4c-4.1,0-7.9,1.5-11.1,4.5l-3.8-6.7c4.7-4.1,10.7-6,16.7-6
			c8.7,0,16.7,3.5,16.7,14.5v24.6h-10V49.5z M224.6,39.6c-1.7-2.2-4.8-3.3-8.1-3.3c-3.9,0-7.2,2.1-7.2,5.8c0,3.6,3.2,5.6,7.2,5.6
			c3.2,0,6.4-1.1,8.1-3.3V39.6z"/>
		<path class="st0" d="M239.7,15.3h10v5.2c2.7-3.4,7.4-6.1,12.2-6.1v9.8c-0.7-0.2-1.7-0.2-2.8-0.2c-3.3,0-7.7,1.8-9.4,4.3v25.2h-10
			V15.3z"/>
		<path class="st0" d="M270.5,44V24.1h-6.3v-8.8h6.3V4.9h10.1v10.4h7.7v8.8h-7.7v17.2c0,2.4,1.3,4.2,3.5,4.2c1.5,0,2.9-0.6,3.5-1.1
			l2.1,7.6c-1.5,1.3-4.2,2.4-8.4,2.4C274.3,54.4,270.5,50.8,270.5,44z"/>
		<path class="st0" d="M317.4,44V24.1h-6.3v-8.8h6.3V4.9h10.1v10.4h7.7v8.8h-7.7v17.2c0,2.4,1.3,4.2,3.5,4.2c1.5,0,2.9-0.6,3.5-1.1
			l2.1,7.6c-1.5,1.3-4.2,2.4-8.4,2.4C321.2,54.4,317.4,50.8,317.4,44z"/>
		<path class="st0" d="M338.1,34.3c0-10.8,7.6-20,20.1-20c12.6,0,20.2,9.2,20.2,20c0,10.9-7.6,20.1-20.2,20.1
			C345.7,54.4,338.1,45.2,338.1,34.3z M368,34.3c0-5.9-3.6-11.1-9.8-11.1s-9.7,5.1-9.7,11.1c0,6,3.5,11.1,9.7,11.1
			S368,40.4,368,34.3z"/>
		<path class="st0" d="M427.8,48.6c-2.6,2.9-7.2,5.8-13.4,5.8c-8.4,0-12.3-4.6-12.3-12V15.3h10v23.1c0,5.3,2.8,7,7,7
			c3.9,0,6.9-2.1,8.7-4.3V15.3h10v38.1h-10V48.6z"/>
		<path class="st0" d="M446,41.5c2.8,2.6,8.4,5.2,13.2,5.2c4.3,0,6.4-1.5,6.4-3.9c0-2.7-3.3-3.6-7.7-4.5c-6.6-1.3-15-2.8-15-11.9
			c0-6.4,5.6-12,15.6-12c6.5,0,11.6,2.2,15.3,5.2l-3.9,6.9c-2.3-2.4-6.6-4.4-11.3-4.4c-3.6,0-6,1.3-6,3.6c0,2.4,3,3.2,7.3,4.1
			c6.6,1.3,15.3,3,15.3,12.5c0,7-5.9,12.2-16.5,12.2c-6.6,0-13-2.2-17.1-5.9L446,41.5z"/>
		<path class="st0" d="M498.5,14.4c11.4,0,19.1,8.5,19.1,21v2.2h-28.3c0.6,4.8,4.5,8.8,11,8.8c3.6,0,7.7-1.4,10.2-3.8l4.4,6.5
			c-3.9,3.6-9.8,5.3-15.7,5.3c-11.6,0-20.4-7.8-20.4-20.1C478.7,23.3,486.8,14.4,498.5,14.4z M489.1,30.8h18.8
			c-0.2-3.6-2.8-8.4-9.4-8.4C492.2,22.3,489.5,27,489.1,30.8z"/>
	</g>
	<g>
		<path class="st1" d="M0,97.2c0-26.9,20.4-45.3,46-45.3c20,0,31.1,10.5,37.3,21.4l-16,7.9C63.6,74,55.7,68.4,46,68.4
			c-15.2,0-26.8,12.2-26.8,28.8s11.6,28.8,26.8,28.8c9.7,0,17.6-5.5,21.3-12.7l16,7.7C77,131.8,65.9,142.5,46,142.5
			C20.4,142.5,0,124.1,0,97.2z"/>
		<path class="st1" d="M131.1,102.3c0-8.8-4.6-11.6-11.8-11.6c-6.4,0-11.6,3.7-14.4,7.5v42.7H88.2V53.3h16.7v32.4
			c4.1-4.9,12-9.9,22.3-9.9c13.9,0,20.6,7.6,20.6,20v45.1h-16.7V102.3z"/>
		<path class="st1" d="M156.2,77.5h16.7v8.7c4.5-5.6,12.3-10.1,20.2-10.1v16.3c-1.2-0.3-2.8-0.4-4.6-0.4c-5.5,0-12.9,3-15.6,7.1
			v41.9h-16.7V77.5z"/>
		<path class="st1" d="M194,109.1c0-18,12.6-33.2,33.5-33.2c21,0,33.6,15.2,33.6,33.2c0,18.1-12.6,33.4-33.6,33.4
			C206.6,142.5,194,127.2,194,109.1z M243.8,109.1c0-9.9-5.9-18.4-16.3-18.4c-10.4,0-16.2,8.5-16.2,18.4c0,10,5.8,18.5,16.2,18.5
			C237.9,127.6,243.8,119.1,243.8,109.1z"/>
		<path class="st1" d="M311.3,102.5c0-8.8-4.6-11.8-11.7-11.8c-6.6,0-11.7,3.7-14.4,7.5v42.7h-16.7V77.5h16.7v8.3
			c4.1-4.9,11.8-9.9,22.2-9.9c13.9,0,20.6,7.9,20.6,20.2v44.8h-16.7V102.5z"/>
		<path class="st1" d="M335.3,109.1c0-18,12.6-33.2,33.5-33.2c21,0,33.6,15.2,33.6,33.2c0,18.1-12.6,33.4-33.6,33.4
			C347.9,142.5,335.3,127.2,335.3,109.1z M385.1,109.1c0-9.9-5.9-18.4-16.3-18.4c-10.4,0-16.2,8.5-16.2,18.4
			c0,10,5.8,18.5,16.2,18.5C379.1,127.6,385.1,119.1,385.1,109.1z"/>
	</g>
	<g>
		<path class="st1" d="M149.8,179.7l-15.2,60.2h-19.8l-25.1-87.6h20.9l15.4,63.3l16.7-63.3h14.6l16.5,63.3l15.2-63.3h21l-25,87.6
			h-19.8L149.8,179.7z"/>
		<path class="st1" d="M245.4,233.3c-4.3,5.1-11.8,8.1-20.1,8.1c-10.1,0-22.1-6.8-22.1-21c0-14.8,12-20.2,22.1-20.2
			c8.4,0,15.9,2.6,20.1,7.7v-8.8c0-6.4-5.5-10.6-13.9-10.6c-6.8,0-13.1,2.5-18.5,7.5l-6.3-11.2c7.7-6.8,17.7-10,27.7-10
			c14.4,0,27.7,5.8,27.7,24v41h-16.7V233.3z M245.4,216.8c-2.8-3.7-8-5.5-13.4-5.5c-6.6,0-12,3.5-12,9.6c0,5.9,5.4,9.3,12,9.3
			c5.4,0,10.6-1.8,13.4-5.5V216.8z"/>
		<path class="st1" d="M270.9,152.3h16.7v87.6h-16.7V152.3z"/>
		<path class="st1" d="M296,152.3h16.7v87.6H296V152.3z"/>
		<path class="st1" d="M352.8,174.9c18.9,0,31.8,14.2,31.8,34.9v3.7h-47.2c1.1,8,7.5,14.7,18.3,14.7c5.9,0,12.9-2.4,16.9-6.3
			l7.4,10.8c-6.4,5.9-16.3,8.8-26.1,8.8c-19.3,0-33.9-13-33.9-33.4C319.9,189.7,333.5,174.9,352.8,174.9z M337.2,202.2h31.3
			c-0.4-6-4.6-14.1-15.6-14.1C342.4,188.1,337.9,195.9,337.2,202.2z"/>
		<path class="st1" d="M395.3,224.1V191h-10.5v-14.6h10.5v-17.3h16.8v17.3H425V191h-12.9v28.6c0,3.9,2.1,7,5.8,7
			c2.5,0,4.9-0.9,5.8-1.8l3.5,12.6c-2.5,2.2-7,4.1-13.9,4.1C401.6,241.5,395.3,235.4,395.3,224.1z"/>
	</g>
</g>
</svg>
