<?xml version="1.0" encoding="utf-8"?>
<!-- Generator: Adobe Illustrator 22.0.1, SVG Export Plug-In . SVG Version: 6.00 Build 0)  -->
<svg version="1.1" id="Layer_1" xmlns="http://www.w3.org/2000/svg" xmlns:xlink="http://www.w3.org/1999/xlink" x="0px" y="0px"
	 width="524.2px" height="237.2px" viewBox="0 0 524.2 237.2" style="enable-background:new 0 0 524.2 237.2;" xml:space="preserve"
	>
<style type="text/css">
	.st0{fill:#D5D3EF;}
	.st1{fill:#E2A864;}
</style>
<g>
	<path class="st0" d="M159.3,37.8c3.7,3.9,9.5,7.1,16.7,7.1c6.2,0,9.2-2.9,9.2-5.9c0-3.9-4.6-5.3-10.7-6.7
		c-8.6-2-19.7-4.3-19.7-16.1c0-8.8,7.6-15.9,20-15.9c8.4,0,15.3,2.5,20.5,7.3l-6.2,8.2c-4.3-3.9-9.9-5.8-15.1-5.8
		c-5.1,0-7.7,2.2-7.7,5.4c0,3.6,4.4,4.7,10.5,6.1c8.7,2,19.7,4.6,19.7,16.3c0,9.6-6.9,16.9-21.1,16.9c-10.1,0-17.4-3.4-22.3-8.4
		L159.3,37.8z"/>
	<path class="st0" d="M204.3,44.3V24.4H198v-8.8h6.3V5.2h10.1v10.4h7.7v8.8h-7.7v17.2c0,2.4,1.3,4.2,3.5,4.2c1.5,0,2.9-0.6,3.5-1.1
		l2.1,7.6c-1.5,1.3-4.2,2.4-8.4,2.4C208.1,54.7,204.3,51.1,204.3,44.3z"/>
	<path class="st0" d="M250.8,49.8c-2.6,3.1-7.1,4.9-12.1,4.9c-6.1,0-13.3-4.1-13.3-12.6c0-8.9,7.2-12.2,13.3-12.2
		c5.1,0,9.6,1.6,12.1,4.7v-5.3c0-3.9-3.3-6.4-8.4-6.4c-4.1,0-7.9,1.5-11.1,4.5l-3.8-6.7c4.7-4.1,10.7-6,16.7-6
		c8.7,0,16.7,3.5,16.7,14.5v24.6h-10V49.8z M250.8,39.9c-1.7-2.2-4.8-3.3-8.1-3.3c-3.9,0-7.2,2.1-7.2,5.8c0,3.6,3.2,5.6,7.2,5.6
		c3.2,0,6.4-1.1,8.1-3.3V39.9z"/>
	<path class="st0" d="M269.1,15.6h10v5.2c2.7-3.4,7.4-6.1,12.2-6.1v9.8c-0.7-0.2-1.7-0.2-2.8-0.2c-3.3,0-7.7,1.8-9.4,4.3v25.2h-10
		V15.6z"/>
	<path class="st0" d="M299.9,44.3V24.4h-6.3v-8.8h6.3V5.2H310v10.4h7.7v8.8H310v17.2c0,2.4,1.3,4.2,3.5,4.2c1.5,0,2.9-0.6,3.5-1.1
		l2.1,7.6c-1.5,1.3-4.2,2.4-8.4,2.4C303.7,54.7,299.9,51.1,299.9,44.3z"/>
	<path class="st0" d="M370.6,48.9c-2.6,2.9-7.2,5.8-13.4,5.8c-8.4,0-12.3-4.6-12.3-12V15.6h10v23.1c0,5.3,2.8,7,7,7
		c3.9,0,6.9-2.1,8.7-4.3V15.6h10v38.1h-10V48.9z"/>
	<path class="st0" d="M390.3,41.8c2.8,2.6,8.4,5.2,13.2,5.2c4.3,0,6.4-1.5,6.4-3.9c0-2.7-3.3-3.6-7.7-4.5c-6.6-1.3-15-2.8-15-11.9
		c0-6.4,5.6-12,15.6-12c6.5,0,11.6,2.2,15.3,5.2l-3.9,6.9c-2.3-2.4-6.6-4.4-11.3-4.4c-3.6,0-6,1.3-6,3.6c0,2.4,3,3.2,7.3,4.1
		c6.6,1.3,15.3,3,15.3,12.5c0,7-5.9,12.2-16.5,12.2c-6.6,0-13-2.2-17.1-5.9L390.3,41.8z"/>
	<path class="st0" d="M424.3,4c0-3.3,2.8-6,6-6c3.3,0,6,2.7,6,6s-2.7,6-6,6C427.1,10,424.3,7.3,424.3,4z M425.4,15.6h10v38.1h-10
		V15.6z"/>
	<path class="st0" d="M469.4,30.7c0-5.3-2.8-7.1-7-7.1c-3.9,0-7,2.2-8.7,4.5v25.7h-10V15.6h10v5c2.4-2.9,7.1-5.9,13.3-5.9
		c8.4,0,12.4,4.7,12.4,12.2v26.9h-10V30.7z"/>
	<path class="st0" d="M491.7,56.3c3.1,3.4,7.1,4.7,11.9,4.7c4.8,0,10.5-2.1,10.5-9.6v-3.9c-3,3.8-7.1,6-11.8,6
		c-9.6,0-16.8-6.7-16.8-19.4c0-12.5,7.2-19.4,16.8-19.4c4.6,0,8.7,2,11.8,5.8v-4.9h10.1v35.5c0,14.5-11.2,18.1-20.6,18.1
		c-6.6,0-11.7-1.5-16.4-5.7L491.7,56.3z M514.1,27.9c-1.7-2.5-5.3-4.3-8.6-4.3c-5.7,0-9.6,3.9-9.6,10.5s3.9,10.5,9.6,10.5
		c3.3,0,6.9-1.9,8.6-4.3V27.9z"/>
</g>
<g>
	<path class="st0" d="M2.4,134.3v-7.6H0v-3.3h2.4v-4h3.8v4h2.9v3.3H6.2v6.5c0,0.9,0.5,1.6,1.3,1.6c0.6,0,1.1-0.2,1.3-0.4l0.8,2.9
		c-0.6,0.5-1.6,0.9-3.2,0.9C3.8,138.2,2.4,136.9,2.4,134.3z"/>
	<path class="st0" d="M21.6,129.1c0-2-1-2.6-2.7-2.6c-1.5,0-2.6,0.8-3.3,1.7v9.7h-3.8v-20h3.8v7.4c0.9-1.1,2.7-2.3,5.1-2.3
		c3.2,0,4.7,1.7,4.7,4.6v10.3h-3.8V129.1z"/>
	<path class="st0" d="M35.5,123c4.3,0,7.3,3.2,7.3,8v0.8H32c0.2,1.8,1.7,3.4,4.2,3.4c1.4,0,2.9-0.5,3.9-1.4l1.7,2.5
		c-1.5,1.4-3.7,2-6,2c-4.4,0-7.7-3-7.7-7.6C28,126.4,31.1,123,35.5,123z M31.9,129.3h7.1c-0.1-1.4-1-3.2-3.6-3.2
		C33.1,126.1,32.1,127.8,31.9,129.3z"/>
</g>
<g>
	<path class="st1" d="M35.8,92.5c0-26.9,20.4-45.3,46-45.3c20,0,31.1,10.5,37.3,21.4l-16,7.9c-3.7-7.1-11.6-12.7-21.3-12.7
		C66.5,63.7,55,75.9,55,92.5s11.6,28.8,26.8,28.8c9.7,0,17.6-5.5,21.3-12.7l16,7.7c-6.3,10.9-17.3,21.5-37.3,21.5
		C56.1,137.8,35.8,119.4,35.8,92.5z"/>
	<path class="st1" d="M166.9,97.6c0-8.8-4.6-11.6-11.8-11.6c-6.4,0-11.6,3.7-14.4,7.5v42.7H124V48.6h16.7V81
		c4.1-4.9,12-9.9,22.3-9.9c13.9,0,20.6,7.6,20.6,20v45.1h-16.7V97.6z"/>
	<path class="st1" d="M194.7,72.8h16.7v8.7c4.5-5.6,12.3-10.1,20.2-10.1v16.3c-1.2-0.3-2.8-0.4-4.6-0.4c-5.5,0-12.9,3-15.6,7.1v41.9
		h-16.7V72.8z"/>
	<path class="st1" d="M232.5,104.4c0-18,12.6-33.2,33.5-33.2c21,0,33.6,15.2,33.6,33.2c0,18.1-12.6,33.4-33.6,33.4
		C245.1,137.8,232.5,122.5,232.5,104.4z M282.2,104.4c0-9.9-5.9-18.4-16.3-18.4c-10.4,0-16.2,8.5-16.2,18.4c0,10,5.8,18.5,16.2,18.5
		C276.3,122.9,282.2,114.4,282.2,104.4z"/>
	<path class="st1" d="M349.8,97.8c0-8.8-4.6-11.8-11.7-11.8c-6.6,0-11.7,3.7-14.4,7.5v42.7H307V72.8h16.7V81
		c4.1-4.9,11.8-9.9,22.2-9.9c13.9,0,20.6,7.9,20.6,20.2v44.8h-16.7V97.8z"/>
	<path class="st1" d="M373.7,104.4c0-18,12.6-33.2,33.5-33.2c21,0,33.6,15.2,33.6,33.2c0,18.1-12.6,33.4-33.6,33.4
		C386.4,137.8,373.7,122.5,373.7,104.4z M423.5,104.4c0-9.9-5.9-18.4-16.3-18.4c-10.4,0-16.2,8.5-16.2,18.4c0,10,5.8,18.5,16.2,18.5
		C417.6,122.9,423.5,114.4,423.5,104.4z"/>
</g>
<g>
	<path class="st1" d="M185.6,175l-15.2,60.2h-19.8l-25.1-87.6h20.9l15.4,63.3l16.7-63.3H193l16.5,63.3l15.2-63.3h21l-25,87.6H201
		L185.6,175z"/>
	<path class="st1" d="M281.2,228.6c-4.3,5.1-11.8,8.1-20.1,8.1c-10.1,0-22.1-6.8-22.1-21c0-14.8,12-20.2,22.1-20.2
		c8.4,0,15.9,2.6,20.1,7.7v-8.8c0-6.4-5.5-10.6-13.9-10.6c-6.8,0-13.1,2.5-18.5,7.5l-6.3-11.2c7.7-6.8,17.7-10,27.7-10
		c14.4,0,27.7,5.8,27.7,24v41h-16.7V228.6z M281.2,212.1c-2.8-3.7-8-5.5-13.4-5.5c-6.6,0-12,3.5-12,9.6c0,5.9,5.4,9.3,12,9.3
		c5.4,0,10.6-1.8,13.4-5.5V212.1z"/>
	<path class="st1" d="M306.7,147.6h16.7v87.6h-16.7V147.6z"/>
	<path class="st1" d="M334.4,147.6h16.7v87.6h-16.7V147.6z"/>
	<path class="st1" d="M391.1,170.2c18.9,0,31.8,14.2,31.8,34.9v3.7h-47.2c1.1,8,7.5,14.7,18.3,14.7c5.9,0,12.9-2.4,16.9-6.3
		l7.4,10.8c-6.4,5.9-16.3,8.8-26.1,8.8c-19.3,0-33.9-13-33.9-33.4C358.3,185,371.8,170.2,391.1,170.2z M375.5,197.5h31.3
		c-0.4-6-4.6-14.1-15.6-14.1C380.8,183.4,376.3,191.2,375.5,197.5z"/>
	<path class="st1" d="M433.6,219.4v-33.1h-10.5v-14.6h10.5v-17.3h16.8v17.3h12.9v14.6h-12.9V215c0,3.9,2.1,7,5.8,7
		c2.5,0,4.9-0.9,5.8-1.8l3.5,12.6c-2.5,2.2-7,4.1-13.9,4.1C440,236.8,433.6,230.7,433.6,219.4z"/>
</g>
</svg>
