<?xml version="1.0" encoding="utf-8"?>
<!-- Generator: Adobe Illustrator 22.0.1, SVG Export Plug-In . SVG Version: 6.00 Build 0)  -->
<svg version="1.1" id="Layer_1" xmlns="http://www.w3.org/2000/svg" xmlns:xlink="http://www.w3.org/1999/xlink" x="0px" y="0px"
	 viewBox="0 0 697.2 264.8" style="enable-background:new 0 0 697.2 264.8;" xml:space="preserve">
<style type="text/css">
	.st0{fill:#D5D3EF;}
	.st1{fill:#E2A864;}
</style>
<g>
	<g>
		<path class="st0" d="M36.2,19.6L27,55.7H15.1L0,3.1h12.6l9.2,38.1l10-38.1h8.8l9.9,38.1l9.2-38.1h12.6l-15,52.7H45.4L36.2,19.6z"
			/>
		<path class="st0" d="M88.2,16.7c11.4,0,19.1,8.5,19.1,21v2.2H79c0.6,4.8,4.5,8.8,11,8.8c3.6,0,7.7-1.4,10.2-3.8l4.4,6.5
			c-3.9,3.6-9.8,5.3-15.7,5.3c-11.6,0-20.4-7.8-20.4-20.1C68.4,25.6,76.6,16.7,88.2,16.7z M78.8,33.1h18.8c-0.2-3.6-2.8-8.4-9.4-8.4
			C82,24.6,79.3,29.3,78.8,33.1z"/>
		<path class="st0" d="M138.5,58.3c3.1,3.4,7.1,4.7,11.9,4.7c4.8,0,10.5-2.1,10.5-9.6v-3.9c-3,3.8-7.1,6-11.8,6
			c-9.6,0-16.8-6.7-16.8-19.4c0-12.5,7.2-19.4,16.8-19.4c4.6,0,8.7,2,11.8,5.8v-4.9H171v35.5c0,14.5-11.2,18.1-20.6,18.1
			c-6.6,0-11.7-1.5-16.4-5.7L138.5,58.3z M160.9,29.9c-1.7-2.5-5.3-4.3-8.6-4.3c-5.7,0-9.6,3.9-9.6,10.5s3.9,10.5,9.6,10.5
			c3.3,0,6.9-1.9,8.6-4.3V29.9z"/>
		<path class="st0" d="M175.3,6c0-3.3,2.8-6,6-6c3.3,0,6,2.7,6,6s-2.7,6-6,6C178.1,12,175.3,9.3,175.3,6z M176.4,17.6h10v38.1h-10
			V17.6z"/>
		<path class="st0" d="M189.9,17.6h10.7l9.9,26.5l9.9-26.5h10.8L216,55.7h-10.8L189.9,17.6z"/>
		<path class="st0" d="M250.6,16.7c11.4,0,19.1,8.5,19.1,21v2.2h-28.3c0.6,4.8,4.5,8.8,11,8.8c3.6,0,7.7-1.4,10.2-3.8l4.4,6.5
			c-3.9,3.6-9.8,5.3-15.7,5.3c-11.6,0-20.4-7.8-20.4-20.1C230.8,25.6,239,16.7,250.6,16.7z M241.2,33.1H260
			c-0.2-3.6-2.8-8.4-9.4-8.4C244.3,24.6,241.6,29.3,241.2,33.1z"/>
		<path class="st0" d="M300.5,62.3c2.6,0,4.3-0.7,5.3-2.8l1.4-3.2l-15.5-38.7h10.7l9.9,26.5l9.9-26.5h10.8L315.2,62
			c-2.8,7.2-7.9,9.1-14.5,9.2c-1.2,0-3.7-0.2-5-0.6l1.5-9C298.2,62.1,299.5,62.3,300.5,62.3z"/>
		<path class="st0" d="M332.6,36.6c0-10.8,7.6-20,20.1-20c12.6,0,20.2,9.2,20.2,20c0,10.9-7.6,20.1-20.2,20.1
			C340.2,56.7,332.6,47.5,332.6,36.6z M362.6,36.6c0-5.9-3.6-11.1-9.8-11.1s-9.7,5.1-9.7,11.1c0,6,3.5,11.1,9.7,11.1
			S362.6,42.6,362.6,36.6z"/>
		<path class="st0" d="M402.6,50.9c-2.6,2.9-7.2,5.8-13.4,5.8c-8.4,0-12.3-4.6-12.3-12V17.6h10v23.1c0,5.3,2.8,7,7,7
			c3.9,0,6.9-2.1,8.7-4.3V17.6h10v38.1h-10V50.9z"/>
	</g>
	<g>
		<path class="st1" d="M220.4,132.6c-4.3,5.1-11.8,8.1-20.1,8.1c-10.1,0-22.1-6.8-22.1-21c0-14.8,12-20.2,22.1-20.2
			c8.4,0,15.9,2.6,20.1,7.7v-8.8c0-6.4-5.5-10.6-13.9-10.6c-6.8,0-13.1,2.5-18.5,7.5l-6.3-11.2c7.7-6.8,17.7-10,27.7-10
			c14.4,0,27.7,5.8,27.7,24v41h-16.7V132.6z M220.4,116.1c-2.8-3.7-8-5.5-13.4-5.5c-6.6,0-12,3.5-12,9.6c0,5.9,5.4,9.3,12,9.3
			c5.4,0,10.6-1.8,13.4-5.5V116.1z"/>
		<path class="st1" d="M324.3,96l-13.4,43.2h-17.9l-19.3-63.4h17.3l11.8,42.7l13.9-42.7h14.8l13.9,42.7l11.8-42.7h17.3l-19.3,63.4
			h-17.7L324.3,96z"/>
		<path class="st1" d="M416,132.6c-4.3,5.1-11.8,8.1-20.1,8.1c-10.1,0-22.1-6.8-22.1-21c0-14.8,12-20.2,22.1-20.2
			c8.4,0,15.9,2.6,20.1,7.7v-8.8c0-6.4-5.5-10.6-13.9-10.6c-6.8,0-13.1,2.5-18.5,7.5l-6.3-11.2c7.8-6.8,17.7-10,27.7-10
			c14.4,0,27.7,5.8,27.7,24v41H416V132.6z M416,116.1c-2.8-3.7-8-5.5-13.4-5.5c-6.6,0-12,3.5-12,9.6c0,5.9,5.4,9.3,12,9.3
			c5.4,0,10.6-1.8,13.4-5.5V116.1z"/>
		<path class="st1" d="M443.7,51.6h16.7v87.6h-16.7V51.6z"/>
		<path class="st1" d="M471.4,51.6h16.7v87.6h-16.7V51.6z"/>
		<path class="st1" d="M528.2,74.2c18.9,0,31.8,14.2,31.8,34.9v3.7h-47.2c1.1,8,7.5,14.7,18.3,14.7c5.9,0,12.9-2.4,16.9-6.3
			l7.4,10.8c-6.4,5.9-16.3,8.8-26.1,8.8c-19.3,0-33.9-13-33.9-33.4C495.3,89,508.9,74.2,528.2,74.2z M512.5,101.5h31.3
			c-0.4-6-4.6-14.1-15.6-14.1C517.8,87.4,513.3,95.2,512.5,101.5z"/>
		<path class="st1" d="M570.7,123.4V90.3h-10.5V75.7h10.5V58.4h16.8v17.3h12.9v14.6h-12.9V119c0,3.9,2.1,7,5.8,7
			c2.5,0,4.9-0.9,5.8-1.8l3.5,12.6c-2.5,2.2-7,4.1-13.9,4.1C577,140.8,570.7,134.7,570.7,123.4z"/>
	</g>
	<g>
		<path class="st0" d="M98.4,195.1v-19.9h-6.3v-8.8h6.3v-10.4h10.1v10.4h7.7v8.8h-7.7v17.2c0,2.4,1.3,4.2,3.5,4.2
			c1.5,0,2.9-0.6,3.5-1.1l2.1,7.6c-1.5,1.3-4.2,2.4-8.4,2.4C102.2,205.6,98.4,201.9,98.4,195.1z"/>
		<path class="st0" d="M117.5,185.5c0-10.8,7.6-20,20.1-20c12.6,0,20.2,9.2,20.2,20c0,10.9-7.6,20.1-20.2,20.1
			C125.1,205.6,117.5,196.4,117.5,185.5z M147.5,185.5c0-5.9-3.6-11.1-9.8-11.1s-9.7,5.1-9.7,11.1c0,6,3.5,11.1,9.7,11.1
			S147.5,191.5,147.5,185.5z"/>
		<path class="st0" d="M192.4,205.6c0,8.7-4.4,14.5-13.6,14.5c-1.8,0-3.2-0.2-4.3-0.4l0.6-8.2c0.6,0.2,1.6,0.2,2.2,0.2
			c2.9,0,5.1-1.8,5.1-6.1v-39.2h10V205.6z M181.4,154.9c0-3.3,2.8-6,6-6c3.3,0,6,2.7,6,6s-2.7,6-6,6
			C184.1,160.9,181.4,158.2,181.4,154.9z"/>
		<path class="st0" d="M196.5,185.5c0-10.8,7.6-20,20.1-20c12.6,0,20.2,9.2,20.2,20c0,10.9-7.6,20.1-20.2,20.1
			C204.1,205.6,196.5,196.4,196.5,185.5z M226.5,185.5c0-5.9-3.6-11.1-9.8-11.1s-9.7,5.1-9.7,11.1c0,6,3.5,11.1,9.7,11.1
			S226.5,191.5,226.5,185.5z"/>
		<path class="st0" d="M240.1,154.9c0-3.3,2.8-6,6-6c3.3,0,6,2.7,6,6s-2.7,6-6,6C242.8,160.9,240.1,158.2,240.1,154.9z M241.1,166.5
			h10v38.1h-10V166.5z"/>
		<path class="st0" d="M283.6,181.6c0-5.3-2.8-7.1-7-7.1c-3.9,0-7,2.2-8.7,4.5v25.7h-10v-38.1h10v5c2.4-2.9,7.1-5.9,13.3-5.9
			c8.4,0,12.4,4.7,12.4,12.2v26.9h-10V181.6z"/>
		<path class="st0" d="M343.5,200.7c-2.6,3.1-7.1,4.9-12.1,4.9c-6.1,0-13.3-4.1-13.3-12.6c0-8.9,7.2-12.2,13.3-12.2
			c5.1,0,9.6,1.6,12.1,4.7v-5.3c0-3.9-3.3-6.4-8.4-6.4c-4.1,0-7.9,1.5-11.1,4.5l-3.8-6.7c4.7-4.1,10.7-6,16.7-6
			c8.7,0,16.7,3.5,16.7,14.5v24.6h-10V200.7z M343.5,190.7c-1.7-2.2-4.8-3.3-8.1-3.3c-3.9,0-7.2,2.1-7.2,5.8c0,3.6,3.2,5.6,7.2,5.6
			c3.2,0,6.4-1.1,8.1-3.3V190.7z"/>
		<path class="st0" d="M384.3,207.1c3.1,3.4,7.1,4.7,11.9,4.7c4.8,0,10.5-2.1,10.5-9.6v-3.9c-3,3.8-7.1,6-11.8,6
			c-9.6,0-16.8-6.7-16.8-19.4c0-12.5,7.2-19.4,16.8-19.4c4.6,0,8.7,2,11.8,5.8v-4.9h10.1V202c0,14.5-11.2,18.1-20.6,18.1
			c-6.6,0-11.7-1.5-16.4-5.7L384.3,207.1z M406.7,178.8c-1.7-2.5-5.3-4.3-8.6-4.3c-5.7,0-9.6,3.9-9.6,10.5s3.9,10.5,9.6,10.5
			c3.3,0,6.9-1.9,8.6-4.3V178.8z"/>
		<path class="st0" d="M423.5,151.9h10v52.7h-10V151.9z"/>
		<path class="st0" d="M437.9,185.5c0-10.8,7.6-20,20.1-20c12.6,0,20.2,9.2,20.2,20c0,10.9-7.6,20.1-20.2,20.1
			C445.5,205.6,437.9,196.4,437.9,185.5z M467.8,185.5c0-5.9-3.6-11.1-9.8-11.1s-9.7,5.1-9.7,11.1c0,6,3.5,11.1,9.7,11.1
			S467.8,191.5,467.8,185.5z"/>
		<path class="st0" d="M482.7,151.9h10v19.4c3-3.9,7.3-5.8,11.8-5.8c9.7,0,16.9,7.6,16.9,20.1c0,12.7-7.3,20-16.9,20
			c-4.6,0-8.8-2.1-11.8-5.8v4.8h-10V151.9z M501.4,196.6c5.8,0,9.7-4.4,9.7-11.1s-3.9-11.1-9.7-11.1c-3.2,0-6.9,1.9-8.6,4.4v13.5
			C494.4,194.8,498.1,196.6,501.4,196.6z"/>
		<path class="st0" d="M548.8,200.7c-2.6,3.1-7.1,4.9-12.1,4.9c-6.1,0-13.3-4.1-13.3-12.6c0-8.9,7.2-12.2,13.3-12.2
			c5.1,0,9.6,1.6,12.1,4.7v-5.3c0-3.9-3.3-6.4-8.4-6.4c-4.1,0-7.9,1.5-11.1,4.5l-3.8-6.7c4.7-4.1,10.7-6,16.7-6
			c8.7,0,16.7,3.5,16.7,14.5v24.6h-10V200.7z M548.8,190.7c-1.7-2.2-4.8-3.3-8.1-3.3c-3.9,0-7.2,2.1-7.2,5.8c0,3.6,3.2,5.6,7.2,5.6
			c3.2,0,6.4-1.1,8.1-3.3V190.7z"/>
		<path class="st0" d="M565.5,151.9h10v52.7h-10V151.9z"/>
	</g>
	<g>
		<path class="st0" d="M451.2,240.8c0-5.3-2.8-7.1-7-7.1c-3.9,0-7,2.2-8.7,4.5v25.7h-10v-38.1h10v5c2.4-2.9,7.1-5.9,13.3-5.9
			c8.4,0,12.4,4.7,12.4,12.2v26.9h-10V240.8z"/>
		<path class="st0" d="M485.3,224.8c11.4,0,19.1,8.5,19.1,21v2.2h-28.3c0.6,4.8,4.5,8.8,11,8.8c3.6,0,7.7-1.4,10.2-3.8l4.4,6.5
			c-3.9,3.6-9.8,5.3-15.7,5.3c-11.6,0-20.4-7.8-20.4-20.1C465.6,233.7,473.7,224.8,485.3,224.8z M475.9,241.2h18.8
			c-0.2-3.6-2.8-8.4-9.4-8.4C479.1,232.7,476.4,237.4,475.9,241.2z"/>
		<path class="st0" d="M510.9,254.4v-19.9h-6.3v-8.8h6.3v-10.4H521v10.4h7.7v8.8H521v17.2c0,2.4,1.3,4.2,3.5,4.2
			c1.5,0,2.9-0.6,3.5-1.1l2.1,7.6c-1.5,1.3-4.2,2.4-8.4,2.4C514.7,264.8,510.9,261.2,510.9,254.4z"/>
		<path class="st0" d="M560.9,237.9l-8.1,26h-10.7l-11.6-38.1h10.4l7.1,25.7l8.4-25.7h8.9l8.4,25.7l7.1-25.7h10.4l-11.6,38.1h-10.7
			L560.9,237.9z"/>
		<path class="st0" d="M590.2,244.7c0-10.8,7.6-20,20.1-20c12.6,0,20.2,9.2,20.2,20c0,10.9-7.6,20.1-20.2,20.1
			C597.8,264.8,590.2,255.6,590.2,244.7z M620.1,244.7c0-5.9-3.6-11.1-9.8-11.1c-6.2,0-9.7,5.1-9.7,11.1c0,6,3.5,11.1,9.7,11.1
			C616.6,255.9,620.1,250.7,620.1,244.7z"/>
		<path class="st0" d="M635,225.7h10v5.2c2.7-3.4,7.4-6.1,12.2-6.1v9.8c-0.7-0.2-1.7-0.2-2.8-0.2c-3.3,0-7.7,1.8-9.4,4.3v25.2h-10
			V225.7z"/>
		<path class="st0" d="M674.5,249.2l-4.6,4.9v9.8h-10v-52.7h10v31.5l14.5-17h12.3L681.6,243l15.6,20.8h-12.6L674.5,249.2z"/>
	</g>
</g>
</svg>
