<svg id="Layer_1" data-name="Layer 1" xmlns="http://www.w3.org/2000/svg" viewBox="0 0 37.977 25.544">
  <defs>
    <style>
      .cls-1 {
        fill: #d9a162;
      }

      .cls-2 {
        fill: #5db3ed;
      }
    </style>
  </defs>
  <title>66268b1e-ff87-4576-88d2-dc0d681b7111</title>
  <g id="logo-chronobank">
    <g id="Group-Copy">
      <path id="Fill-49" class="cls-1" d="M36.251,5.022A4.3,4.3,0,0,1,32.886,1.7h2.5a.858.858,0,0,1,.863.851Zm0,13.778a6.005,6.005,0,0,0-5.11,5.041H6.836A6.005,6.005,0,0,0,1.726,18.8V6.743A6.005,6.005,0,0,0,6.836,1.7H31.141a6.005,6.005,0,0,0,5.11,5.04Zm0,4.189a.858.858,0,0,1-.863.852h-2.5a4.3,4.3,0,0,1,3.365-3.32Zm-33.662.852a.858.858,0,0,1-.863-.852V20.521a4.3,4.3,0,0,1,3.365,3.32ZM1.726,2.554A.858.858,0,0,1,2.589,1.7h2.5A4.3,4.3,0,0,1,1.726,5.022ZM35.388,0H2.589A2.575,2.575,0,0,0,0,2.554V22.989a2.575,2.575,0,0,0,2.589,2.555h32.8a2.575,2.575,0,0,0,2.589-2.555V2.554A2.574,2.574,0,0,0,35.388,0Z"/>
      <path id="Fill-50" class="cls-2" d="M19.09,4.384a8.457,8.457,0,1,0,8.572,8.456A8.5,8.5,0,0,0,19.09,4.384Zm0,1.5a6.953,6.953,0,1,1-7.048,6.952A7.009,7.009,0,0,1,19.09,5.888Z"/>
      <path id="Fill-51" class="cls-2" d="M22.386,12.652H19.452V9.383a.762.762,0,0,0-1.524,0v3.645c0,.075.019.131.019.188a.632.632,0,0,0-.019.188.759.759,0,0,0,.762.752h3.7a.752.752,0,1,0,0-1.5"/>
    </g>
  </g>
</svg>
