<?xml version="1.0" encoding="utf-8"?>
<!-- Generator: Adobe Illustrator 22.0.1, SVG Export Plug-In . SVG Version: 6.00 Build 0)  -->
<svg version="1.1" id="Layer_1" xmlns="http://www.w3.org/2000/svg" xmlns:xlink="http://www.w3.org/1999/xlink" x="0px" y="0px"
	 width="609.7px" height="333px" viewBox="0 0 609.7 333" style="enable-background:new 0 0 609.7 333;" xml:space="preserve">
<style type="text/css">
	.st0{fill:#D5D3EF;}
	.st1{fill:#E2A864;}
</style>
<g>
	<path class="st0" d="M0,1.2h9.9v46.7H0V1.2z"/>
	<path class="st0" d="M20.3,39.5V21.9h-5.6v-7.8h5.6V4.8h9v9.2h6.9v7.8h-6.9v15.3c0,2.1,1.1,3.7,3.1,3.7c1.3,0,2.6-0.5,3.1-1
		l1.9,6.7c-1.3,1.2-3.7,2.2-7.4,2.2C23.7,48.7,20.3,45.5,20.3,39.5z"/>
	<path class="st0" d="M38.5,17.5c2.2-1.2,4.8-4.1,5.4-6.7c-0.2,0.1-0.8,0.3-1.3,0.3c-2.7,0-4.8-2.1-4.8-5c0-3.1,2.5-5.6,5.5-5.6
		c3.3,0,6.3,2.6,6.3,7.1c0,5.3-2.9,9.9-7.2,13L38.5,17.5z"/>
	<path class="st0" d="M50.9,37.3c2.5,2.3,7.5,4.6,11.7,4.6c3.9,0,5.7-1.3,5.7-3.4c0-2.4-2.9-3.2-6.8-4c-5.8-1.1-13.3-2.5-13.3-10.6
		c0-5.7,5-10.6,13.9-10.6c5.7,0,10.3,2,13.6,4.6L72.1,24c-2-2.2-5.9-3.9-10-3.9c-3.2,0-5.3,1.2-5.3,3.2c0,2.1,2.7,2.9,6.4,3.6
		C69,28,76.8,29.5,76.8,37.9c0,6.2-5.3,10.9-14.6,10.9c-5.9,0-11.6-2-15.1-5.3L50.9,37.3z"/>
</g>
<g>
	<path class="st1" d="M87.1,102.6V69.5H76.6V54.9h10.5V37.6h16.8v17.3h12.9v14.6h-12.9v28.6c0,3.9,2.1,7,5.8,7
		c2.5,0,4.9-0.9,5.8-1.8l3.5,12.6c-2.5,2.2-7,4.1-13.9,4.1C93.4,119.9,87.1,113.9,87.1,102.6z"/>
	<path class="st1" d="M122.2,35.6c0-5.5,4.6-10,10-10c5.5,0,10,4.5,10,10s-4.5,10-10,10C126.8,45.6,122.2,41.1,122.2,35.6z
		 M123.9,54.9h16.7v63.4h-16.7V54.9z"/>
	<path class="st1" d="M230.4,78.3c0-5.9-2.6-10.1-9.5-10.1c-5.9,0-10.8,3.9-13.1,7.4v42.8H191V78.3c0-5.9-2.6-10.1-9.5-10.1
		c-5.8,0-10.6,3.9-13.1,7.5v42.7h-16.7V54.9h16.7v8.3c2.6-3.8,11-9.9,20.8-9.9c9.3,0,15.2,4.3,17.6,11.6
		c3.7-5.8,12.1-11.6,21.8-11.6c11.7,0,18.7,6.2,18.7,19.2v45.8h-16.8V78.3z"/>
	<path class="st1" d="M284.4,53.3c18.9,0,31.8,14.2,31.8,34.9v3.7H269c1.1,8,7.5,14.7,18.3,14.7c5.9,0,12.9-2.4,16.9-6.3l7.4,10.8
		c-6.4,5.9-16.3,8.8-26.1,8.8c-19.3,0-33.9-13-33.9-33.4C251.6,68.2,265.1,53.3,284.4,53.3z M268.8,80.6H300
		c-0.4-6-4.6-14.1-15.6-14.1C274,66.6,269.6,74.3,268.8,80.6z"/>
</g>
<g>
	<path class="st0" d="M43.1,166.4v-17.6h-5.6V141h5.6v-9.2h9v9.2h6.9v7.8h-6.9V164c0,2.1,1.1,3.7,3.1,3.7c1.3,0,2.6-0.5,3.1-1
		l1.9,6.7c-1.3,1.2-3.7,2.2-7.4,2.2C46.5,175.6,43.1,172.4,43.1,166.4z"/>
	<path class="st0" d="M60.1,157.8c0-9.6,6.7-17.7,17.9-17.7c11.2,0,17.9,8.1,17.9,17.7c0,9.7-6.7,17.8-17.9,17.8
		C66.8,175.6,60.1,167.5,60.1,157.8z M86.6,157.8c0-5.3-3.2-9.8-8.7-9.8c-5.5,0-8.6,4.6-8.6,9.8c0,5.3,3.1,9.9,8.6,9.9
		C83.5,167.7,86.6,163.2,86.6,157.8z"/>
	<path class="st0" d="M159.5,153.4c0-3.2-1.4-5.4-5-5.4c-3.2,0-5.7,2.1-7,3.9v22.8h-9v-21.4c0-3.2-1.4-5.4-5-5.4c-3.1,0-5.7,2.1-7,4
		v22.8h-8.9V141h8.9v4.4c1.4-2,5.9-5.3,11.1-5.3c5,0,8.1,2.3,9.4,6.2c2-3.1,6.4-6.2,11.6-6.2c6.2,0,9.9,3.3,9.9,10.2v24.4h-9V153.4z
		"/>
	<path class="st0" d="M194.9,171.3c-2.3,2.7-6.3,4.3-10.7,4.3c-5.4,0-11.8-3.6-11.8-11.2c0-7.9,6.4-10.8,11.8-10.8
		c4.5,0,8.5,1.4,10.7,4.1v-4.7c0-3.4-2.9-5.7-7.4-5.7c-3.6,0-7,1.3-9.9,4l-3.4-6c4.1-3.6,9.5-5.3,14.8-5.3c7.7,0,14.8,3.1,14.8,12.8
		v21.8h-8.9V171.3z M194.9,162.5c-1.5-2-4.3-2.9-7.1-2.9c-3.5,0-6.4,1.9-6.4,5.1c0,3.2,2.9,5,6.4,5c2.9,0,5.7-1,7.1-2.9V162.5z"/>
	<path class="st0" d="M222.6,161.8l-4.1,4.3v8.7h-8.9v-46.7h8.9V156l12.8-15.1h10.9l-13.4,15.3l13.8,18.5h-11.1L222.6,161.8z"/>
	<path class="st0" d="M258.3,140.1c10.1,0,16.9,7.6,16.9,18.6v2h-25.1c0.6,4.3,4,7.8,9.7,7.8c3.2,0,6.9-1.3,9-3.4l3.9,5.7
		c-3.4,3.2-8.7,4.7-13.9,4.7c-10.3,0-18.1-6.9-18.1-17.8C240.8,148,248,140.1,258.3,140.1z M249.9,154.7h16.7
		c-0.2-3.2-2.5-7.5-8.3-7.5C252.7,147.2,250.3,151.3,249.9,154.7z"/>
	<path class="st0" d="M298.5,166.4v-17.6h-5.6V141h5.6v-9.2h9v9.2h6.9v7.8h-6.9V164c0,2.1,1.1,3.7,3.1,3.7c1.3,0,2.6-0.5,3.1-1
		l1.9,6.7c-1.3,1.2-3.7,2.2-7.4,2.2C301.9,175.6,298.5,172.4,298.5,166.4z"/>
	<path class="st0" d="M341.2,154.2c0-4.7-2.5-6.2-6.3-6.2c-3.4,0-6.2,2-7.7,4v22.8h-8.9v-46.7h8.9v17.3c2.2-2.6,6.4-5.3,11.9-5.3
		c7.4,0,11,4.1,11,10.6v24h-8.9V154.2z"/>
	<path class="st0" d="M371.5,140.1c10.1,0,16.9,7.6,16.9,18.6v2h-25.1c0.6,4.3,4,7.8,9.7,7.8c3.2,0,6.9-1.3,9-3.4l3.9,5.7
		c-3.4,3.2-8.7,4.7-13.9,4.7c-10.3,0-18.1-6.9-18.1-17.8C354,148,361.2,140.1,371.5,140.1z M363.2,154.7h16.7
		c-0.2-3.2-2.5-7.5-8.3-7.5C366,147.2,363.6,151.3,363.2,154.7z"/>
	<path class="st0" d="M451.9,153.4c0-3.2-1.4-5.4-5-5.4c-3.2,0-5.7,2.1-7,3.9v22.8h-9v-21.4c0-3.2-1.4-5.4-5-5.4c-3.1,0-5.7,2.1-7,4
		v22.8H410V141h8.9v4.4c1.4-2,5.9-5.3,11.1-5.3c5,0,8.1,2.3,9.4,6.2c2-3.1,6.4-6.2,11.6-6.2c6.2,0,9.9,3.3,9.9,10.2v24.4h-9V153.4z"
		/>
	<path class="st0" d="M464.8,157.8c0-9.6,6.7-17.7,17.9-17.7c11.2,0,17.9,8.1,17.9,17.7c0,9.7-6.7,17.8-17.9,17.8
		C471.5,175.6,464.8,167.5,464.8,157.8z M491.4,157.8c0-5.3-3.2-9.8-8.7-9.8c-5.5,0-8.6,4.6-8.6,9.8c0,5.3,3.1,9.9,8.6,9.9
		C488.2,167.7,491.4,163.2,491.4,157.8z"/>
	<path class="st0" d="M527.4,154.3c0-4.7-2.5-6.3-6.2-6.3c-3.5,0-6.2,2-7.7,4v22.8h-8.9V141h8.9v4.4c2.2-2.6,6.3-5.3,11.8-5.3
		c7.4,0,11,4.2,11,10.8v23.9h-8.9V154.3z"/>
	<path class="st0" d="M557.7,140.1c10.1,0,16.9,7.6,16.9,18.6v2h-25.1c0.6,4.3,4,7.8,9.7,7.8c3.2,0,6.9-1.3,9-3.4l3.9,5.7
		c-3.4,3.2-8.7,4.7-13.9,4.7c-10.3,0-18.1-6.9-18.1-17.8C540.2,148,547.4,140.1,557.7,140.1z M549.4,154.7H566
		c-0.2-3.2-2.5-7.5-8.3-7.5C552.2,147.2,549.8,151.3,549.4,154.7z"/>
	<path class="st0" d="M580.5,180.6c2.3,0,3.9-0.6,4.7-2.5l1.3-2.9L572.8,141h9.5l8.8,23.5l8.8-23.5h9.6l-15.9,39.3
		c-2.5,6.4-7,8.1-12.8,8.2c-1,0-3.3-0.2-4.4-0.5l1.3-8C578.5,180.4,579.7,180.6,580.5,180.6z"/>
</g>
<g>
	<path class="st1" d="M213.8,294l-35-53.7h22.1l22.6,36.5l22.4-36.5h22.1L233.1,294v37.2h-19.4V294z"/>
	<path class="st1" d="M252.4,298.3c0-18.7,13.1-34.5,34.8-34.5c21.8,0,34.9,15.8,34.9,34.5c0,18.8-13.1,34.6-34.9,34.6
		C265.5,332.9,252.4,317.1,252.4,298.3z M304.1,298.3c0-10.2-6.1-19.1-16.9-19.1c-10.8,0-16.8,8.9-16.8,19.1
		c0,10.4,6,19.2,16.8,19.2C297.9,317.5,304.1,308.6,304.1,298.3z"/>
	<path class="st1" d="M374,322.9c-4.5,5-12.4,10-23.2,10c-14.5,0-21.3-7.9-21.3-20.7v-46.8h17.3v40c0,9.1,4.8,12.1,12.1,12.1
		c6.7,0,12-3.7,15-7.5v-44.6h17.3v65.9H374V322.9z"/>
	<path class="st1" d="M402.9,265.4h17.3v9c4.6-5.9,12.8-10.5,21-10.5v16.9c-1.2-0.3-2.9-0.4-4.8-0.4c-5.7,0-13.4,3.1-16.2,7.4v43.5
		h-17.3V265.4z"/>
	<path class="st1" d="M449.5,310.5c4.8,4.5,14.6,9,22.8,9c7.5,0,11-2.6,11-6.7c0-4.6-5.7-6.3-13.2-7.8c-11.3-2.2-25.9-4.9-25.9-20.6
		c0-11,9.7-20.7,27-20.7c11.2,0,20,3.8,26.5,9l-6.8,11.9c-4-4.2-11.5-7.6-19.5-7.6c-6.3,0-10.4,2.3-10.4,6.1c0,4.1,5.2,5.6,12.5,7.1
		c11.3,2.2,26.5,5.2,26.5,21.5c0,12.1-10.2,21.1-28.5,21.1c-11.5,0-22.5-3.8-29.5-10.2L449.5,310.5z"/>
	<path class="st1" d="M517,310.7c6,0,10.9,5,10.9,11c0,5.9-4.9,10.9-10.9,10.9s-10.9-5-10.9-10.9C506.1,315.7,511,310.7,517,310.7z
		 M506.4,240.3h21l-2.7,61.4h-15.3L506.4,240.3z"/>
</g>
<g>
	<g>
		<path class="st0" d="M100.5,235.1c2.3,0,3.9-0.6,4.7-2.5l1.3-2.9l-13.7-34.3h9.5L111,219l8.8-23.5h9.6l-15.9,39.3
			c-2.5,6.4-7,8.1-12.8,8.2c-1.1,0-3.3-0.2-4.4-0.5l1.3-8C98.4,234.9,99.6,235.1,100.5,235.1z"/>
		<path class="st0" d="M127.6,212.4c0-9.6,6.7-17.7,17.9-17.7c11.2,0,17.9,8.1,17.9,17.7c0,9.7-6.7,17.8-17.9,17.8
			C134.3,230.1,127.6,222,127.6,212.4z M154.2,212.4c0-5.3-3.2-9.8-8.7-9.8c-5.5,0-8.6,4.6-8.6,9.8c0,5.3,3.1,9.9,8.6,9.9
			C151,222.2,154.2,217.7,154.2,212.4z"/>
		<path class="st0" d="M190.1,225c-2.3,2.6-6.4,5.1-11.9,5.1c-7.4,0-10.9-4.1-10.9-10.6v-24h8.9V216c0,4.7,2.5,6.2,6.2,6.2
			c3.4,0,6.2-1.9,7.7-3.9v-22.9h8.9v33.8h-8.9V225z"/>
		<path class="st0" d="M238.2,194.7c10.1,0,16.9,7.6,16.9,18.6v2h-25.1c0.6,4.3,4,7.8,9.7,7.8c3.2,0,6.9-1.3,9-3.4l3.9,5.7
			c-3.4,3.2-8.7,4.7-13.9,4.7c-10.3,0-18.1-6.9-18.1-17.8C220.7,202.6,228,194.7,238.2,194.7z M229.9,209.2h16.7
			c-0.2-3.2-2.5-7.5-8.3-7.5C232.7,201.7,230.3,205.9,229.9,209.2z"/>
		<path class="st0" d="M279.4,225.8c-2.3,2.7-6.3,4.3-10.7,4.3c-5.4,0-11.8-3.6-11.8-11.2c0-7.9,6.4-10.8,11.8-10.8
			c4.5,0,8.5,1.4,10.7,4.1v-4.7c0-3.4-2.9-5.7-7.4-5.7c-3.6,0-7,1.3-9.9,4l-3.4-6c4.1-3.6,9.5-5.3,14.8-5.3
			c7.7,0,14.8,3.1,14.8,12.8v21.8h-8.9V225.8z M279.4,217c-1.5-2-4.3-2.9-7.1-2.9c-3.5,0-6.4,1.9-6.4,5.1c0,3.2,2.9,5,6.4,5
			c2.9,0,5.7-1,7.1-2.9V217z"/>
		<path class="st0" d="M294.2,195.5h8.9v4.6c2.4-3,6.6-5.4,10.8-5.4v8.7c-0.6-0.1-1.5-0.2-2.5-0.2c-2.9,0-6.9,1.6-8.3,3.8v22.3h-8.9
			V195.5z"/>
		<path class="st0" d="M339.1,208.9c0-4.7-2.5-6.3-6.2-6.3c-3.5,0-6.2,2-7.7,4v22.8h-8.9v-33.8h8.9v4.4c2.2-2.6,6.3-5.3,11.8-5.3
			c7.4,0,11,4.2,11,10.8v23.9h-8.9V208.9z"/>
		<path class="st0" d="M373.7,220.9v-17.6h-5.6v-7.8h5.6v-9.2h9v9.2h6.9v7.8h-6.9v15.3c0,2.1,1.1,3.7,3.1,3.7c1.3,0,2.6-0.5,3.1-1
			l1.9,6.7c-1.3,1.2-3.7,2.2-7.4,2.2C377.1,230.1,373.7,226.9,373.7,220.9z"/>
		<path class="st0" d="M393.5,195.5h8.9v4.6c2.4-3,6.6-5.4,10.8-5.4v8.7c-0.6-0.1-1.5-0.2-2.5-0.2c-2.9,0-6.9,1.6-8.3,3.8v22.3h-8.9
			V195.5z"/>
		<path class="st0" d="M438.4,225c-2.3,2.6-6.4,5.1-11.9,5.1c-7.4,0-10.9-4.1-10.9-10.6v-24h8.9V216c0,4.7,2.5,6.2,6.2,6.2
			c3.4,0,6.2-1.9,7.7-3.9v-22.9h8.9v33.8h-8.9V225z"/>
		<path class="st0" d="M453.3,182.6h8.9v46.7h-8.9V182.6z"/>
		<path class="st0" d="M471.7,235.1c2.3,0,3.9-0.6,4.7-2.5l1.3-2.9l-13.7-34.3h9.5l8.8,23.5l8.8-23.5h9.6l-15.9,39.3
			c-2.5,6.4-7,8.1-12.8,8.2c-1,0-3.3-0.2-4.4-0.5l1.3-8C469.7,234.9,470.8,235.1,471.7,235.1z"/>
	</g>
</g>
</svg>
