<?xml version="1.0" encoding="utf-8"?>
<!-- Generator: Adobe Illustrator 22.0.1, SVG Export Plug-In . SVG Version: 6.00 Build 0)  -->
<svg version="1.1" id="Layer_1" xmlns="http://www.w3.org/2000/svg" xmlns:xlink="http://www.w3.org/1999/xlink" x="0px" y="0px"
	 viewBox="0 0 385.4 133.7" style="enable-background:new 0 0 385.4 133.7;" xml:space="preserve">
<style type="text/css">
	.st0{fill:#E2A864;}
	.st1{fill:#D5D3EF;}
</style>
<g>
	<g>
		<path class="st0" d="M65.1,117H26l-5.5,15.1H0l33.9-87.6h23.4L91,132.1H70.7L65.1,117z M31,100.8h29L45.6,60.6L31,100.8z"/>
		<path class="st0" d="M122.3,67.1c13,0,20.9,5.6,25.1,11.6l-10.9,10.1c-3-4.3-7.6-6.8-13.4-6.8c-10.1,0-17.2,7.4-17.2,18.4
			s7.1,18.5,17.2,18.5c5.8,0,10.4-2.6,13.4-6.8l10.9,10.1c-4.2,5.9-12.1,11.6-25.1,11.6c-19.6,0-33.6-13.8-33.6-33.4
			C88.6,80.9,102.7,67.1,122.3,67.1z"/>
		<path class="st0" d="M180.9,67.1c13,0,20.9,5.6,25.1,11.6l-10.9,10.1c-3-4.3-7.6-6.8-13.4-6.8c-10.1,0-17.2,7.4-17.2,18.4
			s7.1,18.5,17.2,18.5c5.8,0,10.4-2.6,13.4-6.8l10.9,10.1c-4.2,5.9-12.1,11.6-25.1,11.6c-19.6,0-33.6-13.8-33.6-33.4
			C147.3,80.9,161.3,67.1,180.9,67.1z"/>
		<path class="st0" d="M238.7,67.1c18.9,0,31.8,14.2,31.8,34.9v3.7h-47.2c1.1,8,7.5,14.7,18.3,14.7c5.9,0,12.9-2.4,16.9-6.3
			l7.4,10.8c-6.4,5.9-16.3,8.8-26.1,8.8c-19.3,0-33.9-13-33.9-33.4C205.8,81.9,219.4,67.1,238.7,67.1z M223.1,94.4h31.3
			c-0.4-6-4.6-14.1-15.6-14.1C228.3,80.4,223.8,88.1,223.1,94.4z"/>
		<path class="st0" d="M279.1,112.1c4.6,4.3,14.1,8.7,21.9,8.7c7.2,0,10.6-2.5,10.6-6.4c0-4.5-5.5-6-12.7-7.5
			c-10.9-2.1-25-4.7-25-19.8c0-10.6,9.3-20,26-20c10.8,0,19.3,3.7,25.5,8.7l-6.6,11.4c-3.8-4.1-11-7.4-18.8-7.4c-6,0-10,2.2-10,5.9
			c0,3.9,5,5.4,12.1,6.8c10.9,2.1,25.5,5,25.5,20.8c0,11.7-9.9,20.4-27.5,20.4c-11,0-21.7-3.7-28.4-9.9L279.1,112.1z"/>
		<path class="st0" d="M336.8,112.1c4.6,4.3,14.1,8.7,21.9,8.7c7.2,0,10.6-2.5,10.6-6.4c0-4.5-5.5-6-12.7-7.5
			c-10.9-2.1-25-4.7-25-19.8c0-10.6,9.3-20,26-20c10.8,0,19.3,3.7,25.5,8.7l-6.6,11.4c-3.8-4.1-11-7.4-18.8-7.4c-6,0-10,2.2-10,5.9
			c0,3.9,5,5.4,12.1,6.8c10.9,2.1,25.5,5,25.5,20.8c0,11.7-9.9,20.4-27.5,20.4c-11,0-21.7-3.7-28.4-9.9L336.8,112.1z"/>
	</g>
	<g>
		<path class="st1" d="M78.4,31.1L58.1,0h12.8L84,21.2L97,0h12.8L89.6,31.1v21.6H78.4V31.1z"/>
		<path class="st1" d="M98.9,33.6c0-10.8,7.6-20,20.1-20c12.6,0,20.2,9.2,20.2,20c0,10.9-7.6,20.1-20.2,20.1
			C106.5,53.6,98.9,44.5,98.9,33.6z M128.8,33.6c0-5.9-3.6-11.1-9.8-11.1s-9.7,5.1-9.7,11.1c0,6,3.5,11.1,9.7,11.1
			S128.8,39.6,128.8,33.6z"/>
		<path class="st1" d="M168.9,47.9c-2.6,2.9-7.2,5.8-13.4,5.8c-8.4,0-12.3-4.6-12.3-12V14.5h10v23.1c0,5.3,2.8,7,7,7
			c3.9,0,6.9-2.1,8.7-4.3V14.5h10v38.1h-10V47.9z"/>
		<path class="st1" d="M183.2,14.5h10v5.2c2.7-3.4,7.4-6.1,12.2-6.1v9.8c-0.7-0.2-1.7-0.2-2.8-0.2c-3.3,0-7.7,1.8-9.4,4.3v25.2h-10
			V14.5z"/>
	</g>
</g>
</svg>
