<?xml version="1.0" encoding="utf-8"?>
<!-- Generator: Adobe Illustrator 22.0.1, SVG Export Plug-In . SVG Version: 6.00 Build 0)  -->
<svg version="1.1" id="Layer_1" xmlns="http://www.w3.org/2000/svg" xmlns:xlink="http://www.w3.org/1999/xlink" x="0px" y="0px"
	 width="524.2px" height="229.4px" viewBox="0 0 524.2 229.4" style="enable-background:new 0 0 524.2 229.4;" xml:space="preserve"
	>
<style type="text/css">
	.st0{fill:#D5D3EF;}
	.st1{fill:#E2A864;}
</style>
<g>
	<path class="st0" d="M34.7,38.6H13.9l-2.9,8.1H0L18.1,0h12.5l18,46.7H37.7L34.7,38.6z M16.5,30H32L24.3,8.6L16.5,30z"/>
	<path class="st0" d="M93.4,26.3c0-4.7-2.5-6.3-6.2-6.3c-3.5,0-6.2,2-7.7,4v22.8h-8.9V12.9h8.9v4.4c2.2-2.6,6.3-5.3,11.8-5.3
		c7.4,0,11,4.2,11,10.8v23.9h-8.9V26.3z"/>
	<path class="st0" d="M125.1,12c10.1,0,16.9,7.6,16.9,18.6v2h-25.1c0.6,4.3,4,7.8,9.7,7.8c3.2,0,6.9-1.3,9-3.4l3.9,5.7
		c-3.4,3.2-8.7,4.7-13.9,4.7c-10.3,0-18.1-6.9-18.1-17.8C107.6,20,114.8,12,125.1,12z M116.7,26.6h16.7c-0.2-3.2-2.5-7.5-8.3-7.5
		C119.5,19.1,117.2,23.2,116.7,26.6z"/>
	<path class="st0" d="M169.3,23.7l-7.1,23h-9.5l-10.3-33.8h9.2l6.3,22.8l7.4-22.8h7.9l7.4,22.8l6.3-22.8h9.2l-10.3,33.8h-9.5
		L169.3,23.7z"/>
</g>
<g>
	<path class="st1" d="M179.1,76.9l-13.4,43.2h-17.9l-19.3-63.4h17.3l11.8,42.7l13.9-42.7h14.8l13.9,42.7l11.8-42.7h17.3l-19.3,63.4
		h-17.7L179.1,76.9z"/>
	<path class="st1" d="M270.7,113.6c-4.3,5.1-11.8,8.1-20.1,8.1c-10.1,0-22.1-6.8-22.1-21c0-14.8,12-20.2,22.1-20.2
		c8.4,0,15.9,2.6,20.1,7.7v-8.8c0-6.4-5.5-10.6-13.9-10.6c-6.8,0-13.1,2.5-18.5,7.5L232,65.1c7.7-6.8,17.7-10,27.7-10
		c14.4,0,27.7,5.8,27.7,24v41h-16.7V113.6z M270.7,97c-2.8-3.7-8-5.5-13.4-5.5c-6.6,0-12,3.5-12,9.6c0,5.9,5.4,9.3,12,9.3
		c5.4,0,10.6-1.8,13.4-5.5V97z"/>
	<path class="st1" d="M298.5,32.5h16.7v87.6h-16.7V32.5z"/>
	<path class="st1" d="M326.1,32.5h16.7v87.6h-16.7V32.5z"/>
	<path class="st1" d="M382.9,55.1c18.9,0,31.8,14.2,31.8,34.9v3.7h-47.2c1.1,8,7.5,14.7,18.3,14.7c5.9,0,12.9-2.4,16.9-6.3l7.4,10.8
		c-6.4,5.9-16.3,8.8-26.1,8.8c-19.3,0-33.9-13-33.9-33.4C350.1,70,363.6,55.1,382.9,55.1z M367.3,82.4h31.3
		c-0.4-6-4.6-14.1-15.6-14.1C372.5,68.4,368.1,76.1,367.3,82.4z"/>
	<path class="st1" d="M425.4,104.4V71.3h-10.5V56.7h10.5V39.3h16.8v17.3h12.9v14.6h-12.9v28.6c0,3.9,2.1,7,5.8,7
		c2.5,0,4.9-0.9,5.8-1.8l3.5,12.6c-2.5,2.2-7,4.1-13.9,4.1C431.7,121.7,425.4,115.7,425.4,104.4z"/>
</g>
<g>
	<path class="st0" d="M58.3,150.5h-5.6v-7.8h5.6v-1.8c0-7.4,4.8-11.8,11.4-11.8c2.5,0,4.8,0.6,6.4,1.4l-1.8,6.3
		c-0.8-0.5-1.8-0.7-2.9-0.7c-2.5,0-4.2,1.7-4.2,4.9v1.7h6.9v7.8h-6.9v26h-9V150.5z"/>
	<path class="st0" d="M74.4,159.6c0-9.6,6.7-17.7,17.9-17.7c11.2,0,17.9,8.1,17.9,17.7c0,9.7-6.7,17.8-17.9,17.8
		C81.1,177.4,74.4,169.3,74.4,159.6z M100.9,159.6c0-5.3-3.2-9.8-8.7-9.8c-5.5,0-8.6,4.6-8.6,9.8c0,5.3,3.1,9.9,8.6,9.9
		C97.8,169.5,100.9,164.9,100.9,159.6z"/>
	<path class="st0" d="M114.2,142.8h8.9v4.6c2.4-3,6.6-5.4,10.8-5.4v8.7c-0.6-0.1-1.5-0.2-2.5-0.2c-2.9,0-6.9,1.6-8.3,3.8v22.3h-8.9
		V142.8z"/>
	<path class="st0" d="M174.8,173.1c-2.3,2.7-6.3,4.3-10.7,4.3c-5.4,0-11.8-3.6-11.8-11.2c0-7.9,6.4-10.8,11.8-10.8
		c4.5,0,8.5,1.4,10.7,4.1v-4.7c0-3.4-2.9-5.7-7.4-5.7c-3.6,0-7,1.3-9.9,4l-3.4-6c4.1-3.6,9.5-5.3,14.8-5.3c7.7,0,14.8,3.1,14.8,12.8
		v21.8h-8.9V173.1z M174.8,164.2c-1.5-2-4.3-2.9-7.1-2.9c-3.5,0-6.4,1.9-6.4,5.1c0,3.2,2.9,5,6.4,5c2.9,0,5.7-1,7.1-2.9V164.2z"/>
	<path class="st0" d="M210.9,178.8c2.7,3,6.3,4.2,10.6,4.2s9.3-1.9,9.3-8.5V171c-2.7,3.4-6.3,5.3-10.4,5.3c-8.5,0-14.9-6-14.9-17.2
		c0-11.1,6.4-17.2,14.9-17.2c4.1,0,7.7,1.8,10.4,5.2v-4.3h9v31.5c0,12.9-9.9,16-18.3,16c-5.8,0-10.4-1.3-14.6-5L210.9,178.8z
		 M230.8,153.7c-1.5-2.2-4.7-3.9-7.6-3.9c-5,0-8.5,3.5-8.5,9.3s3.5,9.3,8.5,9.3c2.9,0,6.2-1.7,7.6-3.9V153.7z"/>
	<path class="st0" d="M245.7,129.9h8.9v46.7h-8.9V129.9z"/>
	<path class="st0" d="M258.5,159.6c0-9.6,6.7-17.7,17.9-17.7c11.2,0,17.9,8.1,17.9,17.7c0,9.7-6.7,17.8-17.9,17.8
		C265.3,177.4,258.5,169.3,258.5,159.6z M285.1,159.6c0-5.3-3.2-9.8-8.7-9.8c-5.5,0-8.6,4.6-8.6,9.8c0,5.3,3.1,9.9,8.6,9.9
		C281.9,169.5,285.1,164.9,285.1,159.6z"/>
	<path class="st0" d="M298.3,129.9h8.9v17.2c2.7-3.4,6.4-5.2,10.4-5.2c8.6,0,15,6.7,15,17.8c0,11.3-6.4,17.7-15,17.7
		c-4.1,0-7.8-1.8-10.4-5.1v4.3h-8.9V129.9z M314.8,169.5c5.2,0,8.6-3.9,8.6-9.8c0-5.9-3.4-9.9-8.6-9.9c-2.9,0-6.2,1.7-7.6,3.9v12
		C308.7,167.9,312,169.5,314.8,169.5z"/>
	<path class="st0" d="M357,173.1c-2.3,2.7-6.3,4.3-10.7,4.3c-5.4,0-11.8-3.6-11.8-11.2c0-7.9,6.4-10.8,11.8-10.8
		c4.5,0,8.5,1.4,10.7,4.1v-4.7c0-3.4-2.9-5.7-7.4-5.7c-3.6,0-7,1.3-9.9,4l-3.4-6c4.1-3.6,9.5-5.3,14.8-5.3c7.7,0,14.8,3.1,14.8,12.8
		v21.8H357V173.1z M357,164.2c-1.5-2-4.3-2.9-7.1-2.9c-3.5,0-6.4,1.9-6.4,5.1c0,3.2,2.9,5,6.4,5c2.9,0,5.7-1,7.1-2.9V164.2z"/>
	<path class="st0" d="M371.8,129.9h8.9v46.7h-8.9V129.9z"/>
</g>
<g>
	<path class="st0" d="M305.2,208.3c0-4.7-2.5-6.3-6.2-6.3c-3.5,0-6.2,2-7.7,4v22.8h-8.9V195h8.9v4.4c2.2-2.6,6.3-5.3,11.8-5.3
		c7.4,0,11,4.2,11,10.8v23.9h-8.9V208.3z"/>
	<path class="st0" d="M335.4,194.1c10.1,0,16.9,7.6,16.9,18.6v2h-25.1c0.6,4.3,4,7.8,9.7,7.8c3.2,0,6.9-1.3,9-3.4l3.9,5.7
		c-3.4,3.2-8.7,4.7-13.9,4.7c-10.3,0-18.1-6.9-18.1-17.8C317.9,202,325.1,194.1,335.4,194.1z M327.1,208.7h16.7
		c-0.2-3.2-2.4-7.5-8.3-7.5C329.9,201.2,327.5,205.3,327.1,208.7z"/>
	<path class="st0" d="M358.1,220.4v-17.6h-5.6V195h5.6v-9.2h9v9.2h6.9v7.8h-6.9V218c0,2.1,1.1,3.7,3.1,3.7c1.3,0,2.6-0.5,3.1-1
		l1.9,6.7c-1.3,1.2-3.7,2.2-7.4,2.2C361.5,229.6,358.1,226.4,358.1,220.4z"/>
	<path class="st0" d="M401.6,205.8l-7.1,23h-9.5L374.6,195h9.2l6.3,22.8l7.4-22.8h7.9l7.4,22.8l6.3-22.8h9.2l-10.3,33.8h-9.5
		L401.6,205.8z"/>
	<path class="st0" d="M427.6,211.8c0-9.6,6.7-17.7,17.9-17.7c11.2,0,17.9,8.1,17.9,17.7c0,9.7-6.7,17.8-17.9,17.8
		C434.3,229.6,427.6,221.5,427.6,211.8z M454.1,211.8c0-5.3-3.2-9.8-8.7-9.8c-5.5,0-8.6,4.6-8.6,9.8c0,5.3,3.1,9.9,8.6,9.9
		C451,221.7,454.1,217.2,454.1,211.8z"/>
	<path class="st0" d="M467.4,195h8.9v4.6c2.4-3,6.6-5.4,10.8-5.4v8.7c-0.6-0.1-1.5-0.2-2.4-0.2c-2.9,0-6.9,1.6-8.3,3.8v22.3h-8.9
		V195z"/>
	<path class="st0" d="M502.4,215.8l-4.1,4.3v8.7h-8.9v-46.7h8.9V210l12.8-15.1h10.9l-13.4,15.3l13.8,18.5h-11.1L502.4,215.8z"/>
</g>
</svg>
