<?xml version="1.0" encoding="utf-8"?>
<!-- Generator: Adobe Illustrator 22.0.1, SVG Export Plug-In . SVG Version: 6.00 Build 0)  -->
<svg version="1.1" id="Layer_1" xmlns="http://www.w3.org/2000/svg" xmlns:xlink="http://www.w3.org/1999/xlink" x="0px" y="0px"
	 viewBox="0 0 538.3 221.1" style="enable-background:new 0 0 538.3 221.1;" xml:space="preserve">
<style type="text/css">
	.st0{fill:#D5D3EF;}
	.st1{fill:#E2A864;}
</style>
<g>
	<g>
		<path class="st0" d="M20.7,34.2L0.4,3.1h12.8l13.1,21.2l13-21.2H52L31.9,34.2v21.6H20.7V34.2z"/>
		<path class="st0" d="M41.2,36.6c0-10.8,7.6-20,20.1-20c12.6,0,20.2,9.2,20.2,20c0,10.9-7.6,20.1-20.2,20.1
			C48.8,56.7,41.2,47.5,41.2,36.6z M71.1,36.6c0-5.9-3.6-11.1-9.8-11.1s-9.7,5.1-9.7,11.1c0,6,3.5,11.1,9.7,11.1
			S71.1,42.6,71.1,36.6z"/>
		<path class="st0" d="M112.2,50.9c-2.6,2.9-7.2,5.8-13.4,5.8c-8.4,0-12.3-4.6-12.3-12V17.6h10v23.1c0,5.3,2.8,7,7,7
			c3.9,0,6.9-2.1,8.7-4.3V17.6h10v38.1h-10V50.9z"/>
		<path class="st0" d="M128.7,21.5c2.5-1.3,5.4-4.7,6.1-7.5c-0.2,0.2-0.9,0.3-1.5,0.3c-3,0-5.4-2.4-5.4-5.7c0-3.5,2.8-6.3,6.2-6.3
			c3.7,0,7.1,2.9,7.1,8.1c0,5.9-3.3,11.2-8.1,14.7L128.7,21.5z"/>
		<path class="st0" d="M145.7,17.6h10v5.2c2.7-3.4,7.4-6.1,12.2-6.1v9.8c-0.7-0.2-1.7-0.2-2.8-0.2c-3.3,0-7.7,1.8-9.4,4.3v25.2h-10
			V17.6z"/>
		<path class="st0" d="M189.6,16.7c11.4,0,19.1,8.5,19.1,21v2.2h-28.3c0.6,4.8,4.5,8.8,11,8.8c3.6,0,7.7-1.4,10.2-3.8l4.4,6.5
			c-3.9,3.6-9.8,5.3-15.7,5.3c-11.6,0-20.4-7.8-20.4-20.1C169.9,25.6,178,16.7,189.6,16.7z M180.2,33.1H199
			c-0.2-3.6-2.8-8.4-9.4-8.4C183.4,24.6,180.7,29.3,180.2,33.1z"/>
		<path class="st0" d="M235.2,6c0-3.3,2.8-6,6-6c3.3,0,6,2.7,6,6s-2.7,6-6,6C238,12,235.2,9.3,235.2,6z M236.2,17.6h10v38.1h-10
			V17.6z"/>
		<path class="st0" d="M277.3,32.7c0-5.3-2.8-7.1-7-7.1c-3.9,0-7,2.2-8.7,4.5v25.7h-10V17.6h10v5c2.4-2.9,7.1-5.9,13.3-5.9
			c8.4,0,12.4,4.7,12.4,12.2v26.9h-10V32.7z"/>
	</g>
	<g>
		<path class="st1" d="M62.8,82.2c13,0,20.9,5.6,25.1,11.6l-10.9,10.1c-3-4.3-7.6-6.8-13.4-6.8c-10.1,0-17.2,7.4-17.2,18.4
			s7.1,18.5,17.2,18.5c5.8,0,10.4-2.6,13.4-6.8l10.9,10.1c-4.2,5.9-12.1,11.6-25.1,11.6c-19.6,0-33.6-13.8-33.6-33.4
			C29.1,96,43.2,82.2,62.8,82.2z"/>
		<path class="st1" d="M87.8,115.4c0-18,12.6-33.2,33.5-33.2c21,0,33.6,15.2,33.6,33.2c0,18.1-12.6,33.4-33.6,33.4
			C100.4,148.8,87.8,133.5,87.8,115.4z M137.6,115.4c0-9.9-5.9-18.4-16.3-18.4s-16.2,8.5-16.2,18.4c0,10,5.8,18.5,16.2,18.5
			S137.6,125.4,137.6,115.4z"/>
		<path class="st1" d="M205.1,108.8c0-8.8-4.6-11.8-11.7-11.8c-6.6,0-11.7,3.7-14.4,7.5v42.7h-16.7V83.7H179V92
			c4.1-4.9,11.8-9.9,22.2-9.9c13.9,0,20.6,7.9,20.6,20.2v44.8h-16.7V108.8z"/>
		<path class="st1" d="M236.4,131.4V98.3h-10.5V83.7h10.5V66.4h16.8v17.3h12.9v14.6h-12.9V127c0,3.9,2.1,7,5.8,7
			c2.5,0,4.9-0.9,5.8-1.8l3.5,12.6c-2.5,2.2-7,4.1-13.9,4.1C242.7,148.8,236.4,142.7,236.4,131.4z"/>
		<path class="st1" d="M273.5,83.7h16.7v8.7c4.5-5.6,12.3-10.1,20.2-10.1v16.3c-1.2-0.3-2.8-0.4-4.6-0.4c-5.5,0-12.9,3-15.6,7.1
			v41.9h-16.7V83.7z"/>
		<path class="st1" d="M311.3,115.4c0-18,12.6-33.2,33.5-33.2c21,0,33.6,15.2,33.6,33.2c0,18.1-12.6,33.4-33.6,33.4
			C323.9,148.8,311.3,133.5,311.3,115.4z M361.1,115.4c0-9.9-5.9-18.4-16.3-18.4c-10.4,0-16.2,8.5-16.2,18.4
			c0,10,5.8,18.5,16.2,18.5C355.1,133.9,361.1,125.4,361.1,115.4z"/>
		<path class="st1" d="M385.7,59.6h16.7v87.6h-16.7V59.6z"/>
	</g>
	<g>
		<path class="st0" d="M117.6,212.2c2.6,0,4.3-0.7,5.3-2.8l1.4-3.2l-15.5-38.7h10.7l9.9,26.5l9.9-26.5h10.8l-17.9,44.4
			c-2.8,7.2-7.9,9.1-14.5,9.2c-1.2,0-3.7-0.2-5-0.6l1.5-9C115.4,211.9,116.7,212.2,117.6,212.2z"/>
		<path class="st0" d="M148.2,186.5c0-10.8,7.6-20,20.1-20c12.6,0,20.2,9.2,20.2,20c0,10.9-7.6,20.1-20.2,20.1
			C155.8,206.6,148.2,197.4,148.2,186.5z M178.2,186.5c0-5.9-3.6-11.1-9.8-11.1s-9.7,5.1-9.7,11.1c0,6,3.5,11.1,9.7,11.1
			S178.2,192.5,178.2,186.5z"/>
		<path class="st0" d="M218.7,200.8c-2.6,2.9-7.2,5.8-13.4,5.8c-8.4,0-12.3-4.6-12.3-12v-27.1h10v23.1c0,5.3,2.8,7,7,7
			c3.9,0,6.9-2.1,8.7-4.3v-25.8h10v38.1h-10V200.8z"/>
		<path class="st0" d="M233.4,167.5h10v5.2c2.7-3.4,7.4-6.1,12.2-6.1v9.8c-0.7-0.2-1.7-0.2-2.8-0.2c-3.3,0-7.7,1.8-9.4,4.3v25.2h-10
			V167.5z"/>
		<path class="st0" d="M281.9,193.6c2.8,2.6,8.4,5.2,13.2,5.2c4.3,0,6.4-1.5,6.4-3.9c0-2.7-3.3-3.6-7.7-4.5c-6.6-1.3-15-2.8-15-11.9
			c0-6.4,5.6-12,15.6-12c6.5,0,11.6,2.2,15.3,5.2l-3.9,6.9c-2.3-2.4-6.6-4.4-11.3-4.4c-3.6,0-6,1.3-6,3.6c0,2.4,3,3.2,7.3,4.1
			c6.6,1.3,15.3,3,15.3,12.5c0,7-5.9,12.2-16.5,12.2c-6.6,0-13-2.2-17.1-5.9L281.9,193.6z"/>
		<path class="st0" d="M332.8,166.5c11.4,0,19.1,8.5,19.1,21v2.2h-28.3c0.6,4.8,4.5,8.8,11,8.8c3.6,0,7.7-1.4,10.2-3.8l4.4,6.5
			c-3.9,3.6-9.8,5.3-15.7,5.3c-11.6,0-20.4-7.8-20.4-20.1C313,175.5,321.2,166.5,332.8,166.5z M323.4,183h18.8
			c-0.2-3.6-2.8-8.4-9.4-8.4C326.5,174.5,323.9,179.2,323.4,183z"/>
		<path class="st0" d="M374.2,166.5c7.8,0,12.6,3.4,15.1,6.9l-6.6,6.1c-1.8-2.6-4.6-4.1-8.1-4.1c-6.1,0-10.3,4.4-10.3,11.1
			s4.3,11.1,10.3,11.1c3.5,0,6.2-1.6,8.1-4.1l6.6,6.1c-2.5,3.6-7.3,6.9-15.1,6.9c-11.8,0-20.2-8.3-20.2-20.1
			C354,174.8,362.4,166.5,374.2,166.5z"/>
		<path class="st0" d="M417.9,200.8c-2.6,2.9-7.2,5.8-13.4,5.8c-8.4,0-12.3-4.6-12.3-12v-27.1h10v23.1c0,5.3,2.8,7,7,7
			c3.9,0,6.9-2.1,8.7-4.3v-25.8h10v38.1h-10V200.8z"/>
		<path class="st0" d="M434.7,167.5h10v5.2c2.7-3.4,7.4-6.1,12.2-6.1v9.8c-0.7-0.2-1.7-0.2-2.8-0.2c-3.3,0-7.7,1.8-9.4,4.3v25.2h-10
			V167.5z"/>
		<path class="st0" d="M458.5,155.9c0-3.3,2.8-6,6-6c3.3,0,6,2.7,6,6s-2.7,6-6,6C461.3,161.9,458.5,159.2,458.5,155.9z M459.6,167.5
			h10v38.1h-10V167.5z"/>
		<path class="st0" d="M478.4,196.1v-19.9h-6.3v-8.8h6.3v-10.4h10.1v10.4h7.7v8.8h-7.7v17.2c0,2.4,1.3,4.2,3.5,4.2
			c1.5,0,2.9-0.6,3.5-1.1l2.1,7.6c-1.5,1.3-4.2,2.4-8.4,2.4C482.2,206.6,478.4,202.9,478.4,196.1z"/>
		<path class="st0" d="M505.6,212.2c2.6,0,4.3-0.7,5.3-2.8l1.4-3.2l-15.5-38.7h10.7l9.9,26.5l9.9-26.5h10.8l-17.9,44.4
			c-2.8,7.2-7.9,9.1-14.5,9.2c-1.2,0-3.7-0.2-5-0.6l1.5-9C503.3,211.9,504.6,212.2,505.6,212.2z"/>
	</g>
	<g>
		<path class="st0" d="M66.6,184.2c0-5.5,3.8-10.1,10.2-10.1c6.4,0,10.2,4.6,10.2,10.1c0,5.5-3.8,10.2-10.2,10.2
			C70.5,194.3,66.6,189.7,66.6,184.2z M81.8,184.2c0-3-1.8-5.6-5-5.6c-3.2,0-4.9,2.6-4.9,5.6c0,3,1.8,5.6,4.9,5.6
			C80,189.8,81.8,187.2,81.8,184.2z"/>
		<path class="st0" d="M90.8,179h-3.2v-4.4h3.2v-1c0-4.2,2.7-6.7,6.5-6.7c1.4,0,2.8,0.3,3.7,0.8l-1,3.6c-0.4-0.3-1-0.4-1.6-0.4
			c-1.4,0-2.4,1-2.4,2.8v1h3.9v4.4h-3.9v14.9h-5.1V179z"/>
	</g>
</g>
</svg>
