<?xml version="1.0" encoding="utf-8"?>
<!-- Generator: Adobe Illustrator 22.0.1, SVG Export Plug-In . SVG Version: 6.00 Build 0)  -->
<svg version="1.1" id="Layer_1" xmlns="http://www.w3.org/2000/svg" xmlns:xlink="http://www.w3.org/1999/xlink" x="0px" y="0px"
	 width="474.1px" height="188.9px" viewBox="0 0 474.1 188.9" style="enable-background:new 0 0 474.1 188.9;" xml:space="preserve"
	>
<style type="text/css">
	.st0{fill:#E2A864;}
	.st1{fill:#D5D3EF;}
</style>
<g>
	<path class="st0" d="M42.2,126.6c-4.3,5.1-11.8,8.1-20.1,8.1c-10.1,0-22.1-6.8-22.1-21c0-14.8,12-20.2,22.1-20.2
		c8.4,0,15.9,2.6,20.1,7.7v-8.8c0-6.4-5.5-10.6-13.9-10.6c-6.8,0-13.1,2.5-18.5,7.5L3.4,78.1c7.7-6.8,17.7-10,27.7-10
		c14.4,0,27.7,5.8,27.7,24v41H42.2V126.6z M42.2,110c-2.8-3.7-8-5.5-13.4-5.5c-6.6,0-12,3.5-12,9.6c0,5.9,5.4,9.3,12,9.3
		c5.4,0,10.6-1.8,13.4-5.5V110z"/>
	<path class="st0" d="M99.5,68.1c13,0,20.9,5.6,25.1,11.6l-10.9,10.1c-3-4.3-7.6-6.8-13.4-6.8C90.1,83,83,90.3,83,101.3
		s7.1,18.5,17.2,18.5c5.8,0,10.4-2.6,13.4-6.8l10.9,10.1c-4.2,5.9-12.1,11.6-25.1,11.6c-19.6,0-33.6-13.8-33.6-33.4
		C65.8,81.9,79.9,68.1,99.5,68.1z"/>
	<path class="st0" d="M158.1,68.1c13,0,20.9,5.6,25.1,11.6l-10.9,10.1c-3-4.3-7.6-6.8-13.4-6.8c-10.1,0-17.2,7.4-17.2,18.4
		s7.1,18.5,17.2,18.5c5.8,0,10.4-2.6,13.4-6.8l10.9,10.1c-4.2,5.9-12.1,11.6-25.1,11.6c-19.6,0-33.6-13.8-33.6-33.4
		C124.5,81.9,138.5,68.1,158.1,68.1z"/>
	<path class="st0" d="M215.9,68.1c18.9,0,31.8,14.2,31.8,34.9v3.7h-47.2c1.1,8,7.5,14.7,18.3,14.7c5.9,0,12.9-2.4,16.9-6.3l7.4,10.8
		c-6.4,5.9-16.3,8.8-26.1,8.8c-19.3,0-33.9-13-33.9-33.4C183.1,83,196.6,68.1,215.9,68.1z M200.3,95.4h31.3
		c-0.4-6-4.6-14.1-15.6-14.1C205.5,81.4,201.1,89.1,200.3,95.4z"/>
	<path class="st0" d="M256.3,113.2c4.6,4.3,14.1,8.7,21.9,8.7c7.2,0,10.6-2.5,10.6-6.4c0-4.5-5.5-6-12.7-7.5
		c-10.9-2.1-25-4.7-25-19.8c0-10.6,9.3-20,26-20c10.8,0,19.3,3.7,25.5,8.7l-6.6,11.4c-3.8-4.1-11-7.4-18.8-7.4c-6,0-10,2.2-10,5.9
		c0,3.9,5,5.4,12.1,6.8c10.9,2.1,25.5,5,25.5,20.8c0,11.7-9.9,20.4-27.5,20.4c-11,0-21.7-3.7-28.4-9.9L256.3,113.2z"/>
	<path class="st0" d="M314,113.2c4.6,4.3,14.1,8.7,21.9,8.7c7.2,0,10.6-2.5,10.6-6.4c0-4.5-5.5-6-12.7-7.5c-10.9-2.1-25-4.7-25-19.8
		c0-10.6,9.3-20,26-20c10.8,0,19.3,3.7,25.5,8.7l-6.6,11.4c-3.8-4.1-11-7.4-18.8-7.4c-6,0-10,2.2-10,5.9c0,3.9,5,5.4,12.1,6.8
		c10.9,2.1,25.5,5,25.5,20.8c0,11.7-9.9,20.4-27.5,20.4c-11,0-21.7-3.7-28.4-9.9L314,113.2z"/>
</g>
<g>
	<path class="st1" d="M70.3,27.6L52.3,0h11.3l11.6,18.8L86.7,0h11.3L80.2,27.6v19.1h-9.9V27.6z"/>
	<path class="st1" d="M93,29.8c0-9.6,6.7-17.7,17.9-17.7c11.2,0,17.9,8.1,17.9,17.7c0,9.7-6.7,17.8-17.9,17.8
		C99.7,47.5,93,39.4,93,29.8z M119.5,29.8c0-5.3-3.2-9.8-8.7-9.8c-5.5,0-8.6,4.6-8.6,9.8c0,5.3,3.1,9.9,8.6,9.9
		C116.3,39.6,119.5,35.1,119.5,29.8z"/>
	<path class="st1" d="M156.8,42.4c-2.3,2.6-6.4,5.1-11.9,5.1c-7.4,0-10.9-4.1-10.9-10.6v-24h8.9v20.5c0,4.7,2.5,6.2,6.2,6.2
		c3.4,0,6.2-1.9,7.7-3.9V12.9h8.9v33.8h-8.9V42.4z"/>
	<path class="st1" d="M173.1,12.9h8.9v4.6c2.4-3,6.6-5.4,10.8-5.4v8.7c-0.6-0.1-1.5-0.2-2.5-0.2c-2.9,0-6.9,1.6-8.3,3.8v22.3h-8.9
		V12.9z"/>
	<path class="st1" d="M216.2,59.6V12.9h8.9v4.3c2.6-3.3,6.3-5.1,10.4-5.1c8.7,0,15,6.4,15,17.7c0,11.3-6.3,17.8-15,17.8
		c-4,0-7.7-1.7-10.4-5.2v17.2H216.2z M232.7,20c-2.9,0-6.2,1.7-7.6,3.9v12c1.5,2.1,4.8,3.9,7.6,3.9c5.1,0,8.5-4,8.5-9.9
		C241.3,23.9,237.8,20,232.7,20z"/>
	<path class="st1" d="M271.6,12c10.1,0,16.9,7.6,16.9,18.6v2h-25.1c0.6,4.3,4,7.8,9.7,7.8c3.2,0,6.9-1.3,9-3.4l3.9,5.7
		c-3.4,3.2-8.7,4.7-13.9,4.7c-10.3,0-18.1-6.9-18.1-17.8C254.1,20,261.3,12,271.6,12z M263.2,26.6h16.7c-0.2-3.2-2.5-7.5-8.3-7.5
		C266.1,19.1,263.7,23.2,263.2,26.6z"/>
	<path class="st1" d="M293.7,12.9h8.9v4.6c2.4-3,6.6-5.4,10.8-5.4v8.7c-0.6-0.1-1.5-0.2-2.5-0.2c-2.9,0-6.9,1.6-8.3,3.8v22.3h-8.9
		V12.9z"/>
	<path class="st1" d="M319.1,36.1c2.5,2.3,7.5,4.6,11.7,4.6c3.9,0,5.7-1.3,5.7-3.4c0-2.4-2.9-3.2-6.8-4c-5.8-1.1-13.3-2.5-13.3-10.6
		c0-5.7,5-10.6,13.9-10.6c5.7,0,10.3,2,13.6,4.6l-3.5,6.1c-2-2.2-5.9-3.9-10-3.9c-3.2,0-5.3,1.2-5.3,3.2c0,2.1,2.7,2.9,6.4,3.6
		c5.8,1.1,13.6,2.7,13.6,11.1c0,6.2-5.3,10.9-14.6,10.9c-5.9,0-11.6-2-15.1-5.3L319.1,36.1z"/>
	<path class="st1" d="M348.1,29.8c0-9.6,6.7-17.7,17.9-17.7c11.2,0,17.9,8.1,17.9,17.7c0,9.7-6.7,17.8-17.9,17.8
		C354.8,47.5,348.1,39.4,348.1,29.8z M374.6,29.8c0-5.3-3.2-9.8-8.7-9.8c-5.5,0-8.6,4.6-8.6,9.8c0,5.3,3.1,9.9,8.6,9.9
		C371.5,39.6,374.6,35.1,374.6,29.8z"/>
	<path class="st1" d="M412.1,26.3c0-4.7-2.5-6.3-6.2-6.3c-3.5,0-6.2,2-7.7,4v22.8h-8.9V12.9h8.9v4.4c2.2-2.6,6.3-5.3,11.8-5.3
		c7.4,0,11,4.2,11,10.8v23.9h-8.9V26.3z"/>
	<path class="st1" d="M448.7,43.2c-2.3,2.7-6.3,4.3-10.7,4.3c-5.4,0-11.8-3.6-11.8-11.2c0-7.9,6.4-10.8,11.8-10.8
		c4.5,0,8.5,1.4,10.7,4.1V25c0-3.4-2.9-5.7-7.4-5.7c-3.6,0-7,1.3-9.9,4l-3.4-6c4.1-3.6,9.5-5.3,14.8-5.3c7.7,0,14.8,3.1,14.8,12.8
		v21.8h-8.9V43.2z M448.7,34.4c-1.5-2-4.3-2.9-7.1-2.9c-3.5,0-6.4,1.9-6.4,5.1c0,3.1,2.9,5,6.4,5c2.9,0,5.7-1,7.1-2.9V34.4z"/>
	<path class="st1" d="M465,0h8.9v46.7H465V0z"/>
</g>
<g>
	<path class="st1" d="M183.2,153c6.9,0,11.1,3,13.4,6.2l-5.8,5.4c-1.6-2.3-4.1-3.6-7.1-3.6c-5.4,0-9.2,3.9-9.2,9.8
		c0,5.9,3.8,9.9,9.2,9.9c3.1,0,5.5-1.4,7.1-3.6l5.8,5.4c-2.2,3.1-6.4,6.2-13.4,6.2c-10.4,0-17.9-7.4-17.9-17.8
		C165.3,160.4,172.8,153,183.2,153z"/>
	<path class="st1" d="M198,170.8c0-9.6,6.7-17.7,17.9-17.7c11.2,0,17.9,8.1,17.9,17.7c0,9.7-6.7,17.8-17.9,17.8
		C204.7,188.5,198,180.4,198,170.8z M224.5,170.8c0-5.3-3.2-9.8-8.7-9.8c-5.5,0-8.6,4.6-8.6,9.8c0,5.3,3.1,9.9,8.6,9.9
		C221.4,180.6,224.5,176.1,224.5,170.8z"/>
	<path class="st1" d="M262.7,183.4c-2.7,3.3-6.4,5.1-10.4,5.1c-8.5,0-15-6.4-15-17.7c0-11.1,6.4-17.8,15-17.8c4,0,7.8,1.8,10.4,5.2
		V141h9v46.7h-9V183.4z M262.7,164.8c-1.5-2.2-4.7-3.9-7.7-3.9c-5,0-8.5,4-8.5,9.9c0,5.8,3.5,9.8,8.5,9.8c3,0,6.2-1.6,7.7-3.8V164.8
		z"/>
	<path class="st1" d="M294.6,153c10.1,0,16.9,7.6,16.9,18.6v2h-25.1c0.6,4.3,4,7.8,9.7,7.8c3.2,0,6.9-1.3,9-3.4l3.9,5.7
		c-3.4,3.2-8.7,4.7-13.9,4.7c-10.3,0-18.1-6.9-18.1-17.8C277.1,161,284.3,153,294.6,153z M286.3,167.6H303c-0.2-3.2-2.5-7.5-8.3-7.5
		C289.1,160.1,286.7,164.2,286.3,167.6z"/>
</g>
</svg>
