<?xml version="1.0" encoding="utf-8"?>
<!-- Generator: Adobe Illustrator 22.0.1, SVG Export Plug-In . SVG Version: 6.00 Build 0)  -->
<svg version="1.1" id="Layer_1" xmlns="http://www.w3.org/2000/svg" xmlns:xlink="http://www.w3.org/1999/xlink" x="0px" y="0px"
	 viewBox="0 0 299.2 158.8" style="enable-background:new 0 0 299.2 158.8;" xml:space="preserve">
<style type="text/css">
	.st0{fill:#D5D3EF;}
	.st1{fill:#E2A864;}
</style>
<g>
	<g>
		<path class="st0" d="M0,3.1h27.7c10,0,15.2,6.4,15.2,13.4c0,6.6-4.1,11.1-9.1,12.1c5.6,0.9,10.1,6.3,10.1,13
			c0,7.9-5.3,14.2-15.3,14.2H0V3.1z M25.3,24.2c3.8,0,6.2-2.4,6.2-5.8c0-3.2-2.4-5.8-6.2-5.8H11.2v11.6H25.3z M25.7,46.2
			c4.3,0,6.8-2.4,6.8-6.2c0-3.3-2.4-6.2-6.8-6.2H11.2v12.4H25.7z"/>
		<path class="st0" d="M67.2,16.7c11.4,0,19.1,8.5,19.1,21v2.2H58c0.6,4.8,4.5,8.8,11,8.8c3.6,0,7.7-1.4,10.2-3.8l4.4,6.5
			c-3.9,3.6-9.8,5.3-15.7,5.3c-11.6,0-20.4-7.8-20.4-20.1C47.5,25.6,55.6,16.7,67.2,16.7z M57.8,33.1h18.8c-0.2-3.6-2.8-8.4-9.4-8.4
			C61,24.6,58.3,29.3,57.8,33.1z"/>
		<path class="st0" d="M88.8,6c0-3.3,2.8-6,6-6c3.3,0,6,2.7,6,6s-2.7,6-6,6C91.6,12,88.8,9.3,88.8,6z M89.9,17.6h10v38.1h-10V17.6z"
			/>
		<path class="st0" d="M130.9,32.7c0-5.3-2.8-7.1-7-7.1c-3.9,0-7,2.2-8.7,4.5v25.7h-10V17.6h10v5c2.4-2.9,7.1-5.9,13.3-5.9
			c8.4,0,12.4,4.7,12.4,12.2v26.9h-10V32.7z"/>
		<path class="st0" d="M151.2,58.3c3.1,3.4,7.1,4.7,11.9,4.7c4.8,0,10.5-2.1,10.5-9.6v-3.9c-3,3.8-7.1,6-11.8,6
			c-9.6,0-16.8-6.7-16.8-19.4c0-12.5,7.2-19.4,16.8-19.4c4.6,0,8.7,2,11.8,5.8v-4.9h10.1v35.5c0,14.5-11.2,18.1-20.6,18.1
			c-6.6,0-11.7-1.5-16.4-5.7L151.2,58.3z M173.6,29.9c-1.7-2.5-5.3-4.3-8.6-4.3c-5.7,0-9.6,3.9-9.6,10.5s3.9,10.5,9.6,10.5
			c3.3,0,6.9-1.9,8.6-4.3V29.9z"/>
	</g>
	<g>
		<path class="st1" d="M65.5,130.6c6.2,6.4,15.8,11.8,27.8,11.8c10.2,0,15.2-4.9,15.2-9.9c0-6.6-7.6-8.8-17.7-11.2
			c-14.3-3.3-32.7-7.2-32.7-26.8c0-14.6,12.6-26.4,33.2-26.4c13.9,0,25.5,4.2,34.2,12.2l-10.4,13.7c-7.1-6.6-16.5-9.6-25.1-9.6
			c-8.4,0-12.9,3.7-12.9,8.9c0,5.9,7.4,7.7,17.5,10.1c14.4,3.3,32.8,7.6,32.8,27.1c0,16-11.4,28.1-35.1,28.1
			c-16.8,0-28.9-5.6-37.2-13.9L65.5,130.6z"/>
		<path class="st1" d="M173.3,150.6c-4.3,5.1-11.8,8.1-20.1,8.1c-10.1,0-22.1-6.8-22.1-21c0-14.8,12-20.2,22.1-20.2
			c8.4,0,15.9,2.6,20.1,7.7v-8.8c0-6.4-5.5-10.6-13.9-10.6c-6.8,0-13.1,2.5-18.5,7.5l-6.3-11.2c7.7-6.8,17.7-10,27.7-10
			c14.4,0,27.7,5.8,27.7,24v41h-16.7V150.6z M173.3,134.1c-2.8-3.7-8-5.5-13.4-5.5c-6.6,0-12,3.5-12,9.6c0,5.9,5.4,9.3,12,9.3
			c5.4,0,10.6-1.8,13.4-5.5V134.1z"/>
		<path class="st1" d="M204.5,108.3h-10.5V93.7h10.5v-3.4c0-13.8,8.9-22.1,21.4-22.1c4.7,0,9.1,1.1,12.1,2.6l-3.4,11.8
			c-1.4-0.9-3.4-1.3-5.4-1.3c-4.7,0-7.9,3.2-7.9,9.2v3.2h12.9v14.6h-12.9v48.9h-16.8V108.3z"/>
		<path class="st1" d="M267.4,92.2c18.9,0,31.8,14.2,31.8,34.9v3.7H252c1.1,8,7.5,14.7,18.3,14.7c5.9,0,12.9-2.4,16.9-6.3l7.4,10.8
			c-6.4,5.9-16.3,8.8-26.1,8.8c-19.3,0-33.9-13-33.9-33.4C234.6,107,248.1,92.2,267.4,92.2z M251.8,119.5H283
			c-0.4-6-4.6-14.1-15.6-14.1C257,105.4,252.6,113.2,251.8,119.5z"/>
	</g>
</g>
</svg>
