<?xml version="1.0" encoding="utf-8"?>
<!-- Generator: Adobe Illustrator 22.0.1, SVG Export Plug-In . SVG Version: 6.00 Build 0)  -->
<svg version="1.1" id="Layer_1" xmlns="http://www.w3.org/2000/svg" xmlns:xlink="http://www.w3.org/1999/xlink" x="0px" y="0px"
	 width="690.9px" height="261.4px" viewBox="0 0 690.9 261.4" style="enable-background:new 0 0 690.9 261.4;" xml:space="preserve"
	>
<style type="text/css">
	.st0{fill:#D5D3EF;}
	.st1{fill:#E2A864;}
</style>
<g>
	<path class="st0" d="M13.7,8.8H0V0h37.2v8.8H23.7v37.9h-10V8.8z"/>
	<path class="st0" d="M64.3,26.1c0-4.7-2.5-6.2-6.3-6.2c-3.4,0-6.2,2-7.7,4v22.8h-8.9V0h8.9v17.3c2.2-2.6,6.4-5.3,11.9-5.3
		c7.4,0,11,4.1,11,10.6v24h-8.9V26.1z"/>
	<path class="st0" d="M96,12c10.1,0,16.9,7.6,16.9,18.6v2H87.8c0.6,4.3,4,7.8,9.7,7.8c3.2,0,6.9-1.3,9-3.4l3.9,5.7
		c-3.4,3.2-8.7,4.7-13.9,4.7c-10.3,0-18.1-6.9-18.1-17.8C78.5,20,85.7,12,96,12z M87.7,26.6h16.7c-0.2-3.2-2.5-7.5-8.3-7.5
		C90.5,19.1,88.1,23.2,87.7,26.6z"/>
	<path class="st0" d="M135.1,29.8c0-9.6,6.7-17.7,17.9-17.7c11.2,0,17.9,8.1,17.9,17.7c0,9.7-6.7,17.8-17.9,17.8
		C141.9,47.5,135.1,39.4,135.1,29.8z M161.7,29.8c0-5.3-3.2-9.8-8.7-9.8c-5.5,0-8.6,4.6-8.6,9.8c0,5.3,3.1,9.9,8.6,9.9
		C158.5,39.6,161.7,35.1,161.7,29.8z"/>
	<path class="st0" d="M199.1,26.3c0-4.7-2.5-6.3-6.2-6.3c-3.5,0-6.2,2-7.7,4v22.8h-8.9V12.9h8.9v4.4c2.2-2.6,6.3-5.3,11.8-5.3
		c7.4,0,11,4.2,11,10.8v23.9h-8.9V26.3z"/>
	<path class="st0" d="M215.4,0h8.9v46.7h-8.9V0z"/>
	<path class="st0" d="M235.2,52.5c2.3,0,3.9-0.6,4.7-2.5l1.3-2.9l-13.7-34.3h9.5l8.8,23.5l8.8-23.5h9.6l-15.9,39.3
		c-2.5,6.4-7,8.1-12.8,8.2c-1,0-3.3-0.2-4.4-0.5l1.3-8C233.1,52.3,234.3,52.5,235.2,52.5z"/>
	<path class="st0" d="M286,59.6V12.9h8.9v4.3c2.6-3.3,6.3-5.1,10.4-5.1c8.7,0,15,6.4,15,17.7c0,11.3-6.3,17.8-15,17.8
		c-4,0-7.7-1.7-10.4-5.2v17.2H286z M302.6,20c-2.9,0-6.2,1.7-7.6,3.9v12c1.5,2.1,4.8,3.9,7.6,3.9c5.1,0,8.5-4,8.5-9.9
		C311.1,23.9,307.7,20,302.6,20z"/>
	<path class="st0" d="M341.4,12c10.1,0,16.9,7.6,16.9,18.6v2h-25.1c0.6,4.3,4,7.8,9.7,7.8c3.2,0,6.9-1.3,9-3.4l3.9,5.7
		c-3.4,3.2-8.7,4.7-13.9,4.7c-10.3,0-18.1-6.9-18.1-17.8C323.9,20,331.1,12,341.4,12z M333.1,26.6h16.7c-0.2-3.2-2.5-7.5-8.3-7.5
		C335.9,19.1,333.5,23.2,333.1,26.6z"/>
	<path class="st0" d="M363.6,12.9h8.9v4.6c2.4-3,6.6-5.4,10.8-5.4v8.7c-0.6-0.1-1.5-0.2-2.5-0.2c-2.9,0-6.9,1.6-8.3,3.8v22.3h-8.9
		V12.9z"/>
	<path class="st0" d="M388.9,36.1c2.5,2.3,7.5,4.6,11.7,4.6c3.9,0,5.7-1.3,5.7-3.4c0-2.4-2.9-3.2-6.8-4c-5.8-1.1-13.3-2.5-13.3-10.6
		c0-5.7,5-10.6,13.9-10.6c5.7,0,10.3,2,13.6,4.6l-3.5,6.1c-2-2.2-5.9-3.9-10-3.9c-3.2,0-5.3,1.2-5.3,3.2c0,2.1,2.7,2.9,6.4,3.6
		c5.8,1.1,13.6,2.7,13.6,11.1c0,6.2-5.3,10.9-14.6,10.9c-5.9,0-11.6-2-15.1-5.3L388.9,36.1z"/>
	<path class="st0" d="M417.9,29.8c0-9.6,6.7-17.7,17.9-17.7c11.2,0,17.9,8.1,17.9,17.7c0,9.7-6.7,17.8-17.9,17.8
		C424.7,47.5,417.9,39.4,417.9,29.8z M444.5,29.8c0-5.3-3.2-9.8-8.7-9.8c-5.5,0-8.6,4.6-8.6,9.8c0,5.3,3.1,9.9,8.6,9.9
		C441.3,39.6,444.5,35.1,444.5,29.8z"/>
	<path class="st0" d="M481.9,26.3c0-4.7-2.5-6.3-6.2-6.3c-3.5,0-6.2,2-7.7,4v22.8h-8.9V12.9h8.9v4.4c2.2-2.6,6.3-5.3,11.8-5.3
		c7.4,0,11,4.2,11,10.8v23.9h-8.9V26.3z"/>
</g>
<g>
	<path class="st1" d="M150,95.9l-13.4,43.2h-17.9L99.4,75.7h17.3l11.8,42.7l13.9-42.7h14.8l13.9,42.7l11.8-42.7h17.3l-19.3,63.4
		h-17.7L150,95.9z"/>
	<path class="st1" d="M231.6,74.1c18.9,0,31.8,14.2,31.8,34.9v3.7h-47.2c1.1,8,7.5,14.7,18.3,14.7c5.9,0,12.9-2.4,16.9-6.3l7.4,10.8
		c-6.4,5.9-16.3,8.8-26.1,8.8c-19.3,0-33.9-13-33.9-33.4C198.7,89,212.3,74.1,231.6,74.1z M216,101.4h31.3
		c-0.4-6-4.6-14.1-15.6-14.1C221.2,87.4,216.7,95.1,216,101.4z"/>
	<path class="st1" d="M307.1,123.4V90.3h-10.5V75.7h10.5V58.3h16.8v17.3h12.9v14.6h-12.9v28.6c0,3.9,2.1,7,5.8,7
		c2.5,0,4.9-0.9,5.8-1.8l3.5,12.6c-2.5,2.2-7,4.1-13.9,4.1C313.4,140.7,307.1,134.7,307.1,123.4z"/>
	<path class="st1" d="M344.2,75.7h16.7v8.7c4.5-5.6,12.3-10.1,20.2-10.1v16.3c-1.2-0.3-2.8-0.4-4.6-0.4c-5.5,0-12.9,3-15.6,7.1v41.9
		h-16.7V75.7z"/>
	<path class="st1" d="M428.4,131.1c-4.3,4.9-12,9.6-22.3,9.6c-13.9,0-20.5-7.6-20.5-20V75.7h16.7v38.5c0,8.8,4.6,11.7,11.7,11.7
		c6.4,0,11.6-3.5,14.4-7.2v-43h16.7v63.4h-16.7V131.1z"/>
	<path class="st1" d="M458.7,119.2c4.6,4.3,14.1,8.7,21.9,8.7c7.2,0,10.6-2.5,10.6-6.4c0-4.5-5.5-6-12.7-7.5
		c-10.9-2.1-25-4.7-25-19.8c0-10.6,9.3-20,26-20c10.8,0,19.3,3.7,25.5,8.7l-6.6,11.4c-3.8-4.1-11-7.4-18.8-7.4c-6,0-10,2.2-10,5.9
		c0,3.9,5,5.4,12.1,6.8c10.9,2.1,25.5,5,25.5,20.8c0,11.7-9.9,20.4-27.5,20.4c-11,0-21.7-3.7-28.4-9.9L458.7,119.2z"/>
	<path class="st1" d="M518.7,123.4V90.3h-10.5V75.7h10.5V58.3h16.8v17.3h12.9v14.6h-12.9v28.6c0,3.9,2.1,7,5.8,7
		c2.5,0,4.9-0.9,5.8-1.8l3.5,12.6c-2.5,2.2-7,4.1-13.9,4.1C525,140.7,518.7,134.7,518.7,123.4z"/>
</g>
<g>
	<path class="st0" d="M440.3,203.2c0-2.9,2.5-5.3,5.3-5.3c2.9,0,5.3,2.4,5.3,5.3s-2.4,5.3-5.3,5.3
		C442.8,208.5,440.3,206.1,440.3,203.2z M441.2,213.4h8.9v33.8h-8.9V213.4z"/>
	<path class="st0" d="M457.3,236.6c2.5,2.3,7.5,4.6,11.7,4.6c3.9,0,5.7-1.3,5.7-3.4c0-2.4-2.9-3.2-6.8-4
		c-5.8-1.1-13.3-2.5-13.3-10.6c0-5.7,5-10.6,13.9-10.6c5.7,0,10.3,2,13.6,4.6l-3.5,6.1c-2-2.2-5.9-3.9-10-3.9
		c-3.2,0-5.3,1.2-5.3,3.2c0,2.1,2.7,2.9,6.4,3.6c5.8,1.1,13.6,2.7,13.6,11.1c0,6.2-5.3,10.9-14.6,10.9c-5.9,0-11.6-2-15.1-5.3
		L457.3,236.6z"/>
	<path class="st0" d="M507.9,253.1c2.3,0,3.9-0.6,4.7-2.5l1.3-2.9l-13.7-34.3h9.5l8.8,23.5l8.8-23.5h9.6l-15.9,39.3
		c-2.5,6.4-7,8.1-12.8,8.2c-1,0-3.3-0.2-4.4-0.5l1.3-8C505.8,252.9,507,253.1,507.9,253.1z"/>
	<path class="st0" d="M535,230.3c0-9.6,6.7-17.7,17.9-17.7c11.2,0,17.9,8.1,17.9,17.7c0,9.7-6.7,17.8-17.9,17.8
		C541.7,248.1,535,240,535,230.3z M561.5,230.3c0-5.3-3.2-9.8-8.7-9.8c-5.5,0-8.6,4.5-8.6,9.8c0,5.3,3.1,9.9,8.6,9.9
		C558.4,240.2,561.5,235.6,561.5,230.3z"/>
	<path class="st0" d="M597.5,243c-2.3,2.6-6.4,5.1-11.9,5.1c-7.4,0-10.9-4.1-10.9-10.6v-24h8.9V234c0,4.7,2.5,6.2,6.2,6.2
		c3.4,0,6.2-1.9,7.7-3.9v-22.9h8.9v33.8h-8.9V243z"/>
</g>
<g>
	<path class="st0" d="M193.8,174.5l-7.1,23h-9.5l-10.3-33.8h9.2l6.3,22.8l7.4-22.8h7.9l7.4,22.8l6.3-22.8h9.2l-10.3,33.8h-9.5
		L193.8,174.5z"/>
	<path class="st0" d="M221.8,153.5c0-2.9,2.5-5.3,5.3-5.3c2.9,0,5.3,2.4,5.3,5.3s-2.4,5.3-5.3,5.3
		C224.2,158.8,221.8,156.4,221.8,153.5z M222.7,163.8h8.9v33.8h-8.9V163.8z"/>
	<path class="st0" d="M239.4,189.2v-17.6h-5.6v-7.8h5.6v-9.2h9v9.2h6.9v7.8h-6.9v15.3c0,2.1,1.1,3.7,3.1,3.7c1.3,0,2.6-0.5,3.1-1
		l1.9,6.7c-1.3,1.2-3.7,2.2-7.4,2.2C242.8,198.4,239.4,195.2,239.4,189.2z"/>
	<path class="st0" d="M282.1,177c0-4.7-2.5-6.2-6.3-6.2c-3.4,0-6.2,2-7.7,4v22.8h-8.9v-46.7h8.9v17.3c2.2-2.6,6.4-5.3,11.9-5.3
		c7.4,0,11,4.1,11,10.6v24h-8.9V177z"/>
	<path class="st0" d="M317.9,203.4c2.3,0,3.9-0.6,4.7-2.5l1.3-2.9l-13.7-34.3h9.5l8.8,23.5l8.8-23.5h9.6L331,203.1
		c-2.5,6.4-7,8.1-12.8,8.2c-1,0-3.3-0.2-4.4-0.5l1.3-8C315.8,203.2,317,203.4,317.9,203.4z"/>
	<path class="st0" d="M345,180.6c0-9.6,6.7-17.7,17.9-17.7c11.2,0,17.9,8.1,17.9,17.7c0,9.7-6.7,17.8-17.9,17.8
		C351.8,198.4,345,190.3,345,180.6z M371.6,180.6c0-5.3-3.2-9.8-8.7-9.8s-8.6,4.6-8.6,9.8c0,5.3,3.1,9.9,8.6,9.9
		S371.6,185.9,371.6,180.6z"/>
	<path class="st0" d="M407.5,193.3c-2.3,2.6-6.4,5.1-11.9,5.1c-7.4,0-10.9-4.1-10.9-10.6v-24h8.9v20.5c0,4.7,2.5,6.2,6.2,6.2
		c3.4,0,6.2-1.9,7.7-3.9v-22.9h8.9v33.8h-8.9V193.3z"/>
	<path class="st0" d="M422.4,163.8h8.9v4.6c2.4-3,6.6-5.4,10.8-5.4v8.7c-0.6-0.1-1.5-0.2-2.5-0.2c-2.9,0-6.9,1.6-8.3,3.8v22.3h-8.9
		V163.8z"/>
	<path class="st0" d="M463.6,186.9c2.5,2.3,7.5,4.6,11.7,4.6c3.9,0,5.7-1.3,5.7-3.4c0-2.4-2.9-3.2-6.8-4
		c-5.8-1.1-13.3-2.5-13.3-10.6c0-5.7,5-10.6,13.9-10.6c5.7,0,10.3,2,13.6,4.6l-3.5,6.1c-2-2.2-5.9-3.9-10-3.9
		c-3.2,0-5.3,1.2-5.3,3.2c0,2.1,2.7,2.9,6.4,3.6c5.8,1.1,13.6,2.7,13.6,11.1c0,6.2-5.3,10.9-14.6,10.9c-5.9,0-11.6-2-15.1-5.3
		L463.6,186.9z"/>
	<path class="st0" d="M508.7,162.9c10.1,0,16.9,7.6,16.9,18.6v2h-25.1c0.6,4.3,4,7.8,9.7,7.8c3.2,0,6.9-1.3,9-3.4l3.9,5.7
		c-3.4,3.2-8.7,4.7-13.9,4.7c-10.3,0-18.1-6.9-18.1-17.8C491.2,170.8,498.4,162.9,508.7,162.9z M500.4,177.5h16.7
		c-0.2-3.2-2.5-7.5-8.3-7.5C503.2,170,500.8,174.1,500.4,177.5z"/>
	<path class="st0" d="M545.5,162.9c6.9,0,11.1,3,13.4,6.2l-5.8,5.4c-1.6-2.3-4.1-3.6-7.1-3.6c-5.4,0-9.2,3.9-9.2,9.8
		c0,5.9,3.8,9.9,9.2,9.9c3.1,0,5.5-1.4,7.1-3.6l5.8,5.4c-2.2,3.2-6.4,6.2-13.4,6.2c-10.4,0-17.9-7.4-17.9-17.8
		C527.6,170.3,535.1,162.9,545.5,162.9z"/>
	<path class="st0" d="M584.3,193.3c-2.3,2.6-6.4,5.1-11.9,5.1c-7.4,0-10.9-4.1-10.9-10.6v-24h8.9v20.5c0,4.7,2.5,6.2,6.2,6.2
		c3.4,0,6.2-1.9,7.7-3.9v-22.9h8.9v33.8h-8.9V193.3z"/>
	<path class="st0" d="M599.1,163.8h8.9v4.6c2.4-3,6.6-5.4,10.8-5.4v8.7c-0.6-0.1-1.5-0.2-2.5-0.2c-2.9,0-6.9,1.6-8.3,3.8v22.3h-8.9
		V163.8z"/>
	<path class="st0" d="M620.3,153.5c0-2.9,2.5-5.3,5.3-5.3c2.9,0,5.3,2.4,5.3,5.3s-2.4,5.3-5.3,5.3
		C622.8,158.8,620.3,156.4,620.3,153.5z M621.3,163.8h8.9v33.8h-8.9V163.8z"/>
	<path class="st0" d="M638,189.2v-17.6h-5.6v-7.8h5.6v-9.2h9v9.2h6.9v7.8h-6.9v15.3c0,2.1,1.1,3.7,3.1,3.7c1.3,0,2.6-0.5,3.1-1
		l1.9,6.7c-1.3,1.2-3.7,2.2-7.4,2.2C641.3,198.4,638,195.2,638,189.2z"/>
	<path class="st0" d="M662.1,203.4c2.3,0,3.9-0.6,4.7-2.5l1.3-2.9l-13.7-34.3h9.5l8.8,23.5l8.8-23.5h9.6l-15.9,39.3
		c-2.5,6.4-7,8.1-12.8,8.2c-1,0-3.3-0.2-4.4-0.5l1.3-8C660.1,203.2,661.3,203.4,662.1,203.4z"/>
</g>
</svg>
